<svg width="342" height="56" viewBox="0 0 342 56" fill="none" xmlns="http://www.w3.org/2000/svg">
<g filter="url(#filter0_diii_70_50928)">
<path d="M26.06 44.648C22.208 44.648 18.86 43.82 16.016 42.164C13.208 40.472 11.012 38.114 9.428 35.09C7.88 32.03 7.106 28.43 7.106 24.29C7.106 20.186 7.898 16.604 9.482 13.544C11.102 10.484 13.37 8.108 16.286 6.416C19.202 4.724 22.568 3.878 26.384 3.878C29.516 3.878 32.324 4.454 34.808 5.606C37.292 6.758 39.344 8.378 40.964 10.466C42.584 12.518 43.61 14.966 44.042 17.81H36.752C36.068 15.506 34.79 13.724 32.918 12.464C31.082 11.168 28.832 10.52 26.168 10.52C23.792 10.52 21.704 11.078 19.904 12.194C18.14 13.31 16.772 14.894 15.8 16.946C14.828 18.998 14.342 21.446 14.342 24.29C14.342 27.026 14.828 29.438 15.8 31.526C16.772 33.578 18.14 35.18 19.904 36.332C21.704 37.448 23.792 38.006 26.168 38.006C28.868 38.006 31.172 37.358 33.08 36.062C35.024 34.766 36.32 33.02 36.968 30.824H44.15C43.646 33.56 42.548 35.972 40.856 38.06C39.2 40.148 37.094 41.768 34.538 42.92C32.018 44.072 29.192 44.648 26.06 44.648ZM46.1906 30.608C46.1906 27.836 46.8026 25.406 48.0266 23.318C49.2506 21.194 50.9426 19.538 53.1026 18.35C55.2626 17.162 57.7106 16.568 60.4466 16.568C63.2186 16.568 65.6666 17.162 67.7906 18.35C69.9506 19.538 71.6426 21.194 72.8666 23.318C74.0906 25.406 74.7026 27.836 74.7026 30.608C74.7026 33.38 74.0906 35.828 72.8666 37.952C71.6426 40.04 69.9506 41.678 67.7906 42.866C65.6666 44.054 63.2186 44.648 60.4466 44.648C57.7106 44.648 55.2626 44.054 53.1026 42.866C50.9426 41.678 49.2506 40.04 48.0266 37.952C46.8026 35.828 46.1906 33.38 46.1906 30.608ZM52.7786 30.608C52.7786 32.228 53.1026 33.65 53.7506 34.874C54.4346 36.098 55.3346 37.052 56.4506 37.736C57.6026 38.42 58.9346 38.762 60.4466 38.762C61.9586 38.762 63.2906 38.42 64.4426 37.736C65.5946 37.052 66.4946 36.098 67.1426 34.874C67.7906 33.65 68.1146 32.228 68.1146 30.608C68.1146 28.952 67.7906 27.53 67.1426 26.342C66.4946 25.118 65.5946 24.164 64.4426 23.48C63.2906 22.796 61.9586 22.454 60.4466 22.454C58.9346 22.454 57.6026 22.796 56.4506 23.48C55.3346 24.164 54.4346 25.118 53.7506 26.342C53.1026 27.53 52.7786 28.952 52.7786 30.608ZM89.2666 44.702C86.6746 44.702 84.4426 44.126 82.5706 42.974C80.7346 41.786 79.2946 40.148 78.2506 38.06C77.2426 35.972 76.7386 33.542 76.7386 30.77C76.7386 27.998 77.2426 25.55 78.2506 23.426C79.2946 21.266 80.7886 19.574 82.7326 18.35C84.6766 17.126 86.9806 16.514 89.6446 16.514C91.5166 16.514 93.2266 16.892 94.7746 17.648C96.3226 18.368 97.5106 19.394 98.3386 20.726V3.824H104.873V44H98.8246L98.3926 39.842C97.6006 41.354 96.3766 42.542 94.7206 43.406C93.1006 44.27 91.2826 44.702 89.2666 44.702ZM90.7246 38.654C92.2726 38.654 93.6046 38.33 94.7206 37.682C95.8366 36.998 96.7006 36.044 97.3126 34.82C97.9606 33.56 98.2846 32.138 98.2846 30.554C98.2846 28.934 97.9606 27.53 97.3126 26.342C96.7006 25.118 95.8366 24.164 94.7206 23.48C93.6046 22.76 92.2726 22.4 90.7246 22.4C89.2126 22.4 87.8986 22.76 86.7826 23.48C85.6666 24.164 84.8026 25.118 84.1906 26.342C83.6146 27.566 83.3266 28.97 83.3266 30.554C83.3266 32.138 83.6146 33.542 84.1906 34.766C84.8026 35.99 85.6666 36.944 86.7826 37.628C87.8986 38.312 89.2126 38.654 90.7246 38.654ZM122.052 44.702C119.424 44.702 117.084 44.108 115.032 42.92C113.016 41.696 111.432 40.04 110.28 37.952C109.128 35.828 108.552 33.398 108.552 30.662C108.552 27.89 109.11 25.442 110.226 23.318C111.342 21.194 112.908 19.538 114.924 18.35C116.94 17.126 119.244 16.514 121.836 16.514C124.536 16.514 126.858 17.09 128.802 18.242C130.746 19.358 132.24 20.924 133.284 22.94C134.364 24.956 134.904 27.368 134.904 30.176V32.174L112.008 32.228L112.116 28.016H128.37C128.37 26.18 127.776 24.704 126.588 23.588C125.436 22.472 123.87 21.914 121.89 21.914C120.342 21.914 119.028 22.238 117.948 22.886C116.904 23.534 116.112 24.506 115.572 25.802C115.032 27.098 114.762 28.682 114.762 30.554C114.762 33.434 115.374 35.612 116.598 37.088C117.858 38.564 119.712 39.302 122.16 39.302C123.96 39.302 125.436 38.96 126.588 38.276C127.776 37.592 128.55 36.62 128.91 35.36H135.012C134.436 38.276 132.996 40.562 130.692 42.218C128.424 43.874 125.544 44.702 122.052 44.702ZM146.333 44H139.529V4.526H146.387L166.907 35.576H164.909V4.526H171.713V44H164.909L144.335 13.004H146.333V44ZM176.293 30.608C176.293 27.836 176.905 25.406 178.129 23.318C179.353 21.194 181.045 19.538 183.205 18.35C185.365 17.162 187.813 16.568 190.549 16.568C193.321 16.568 195.769 17.162 197.893 18.35C200.053 19.538 201.745 21.194 202.969 23.318C204.193 25.406 204.805 27.836 204.805 30.608C204.805 33.38 204.193 35.828 202.969 37.952C201.745 40.04 200.053 41.678 197.893 42.866C195.769 44.054 193.321 44.648 190.549 44.648C187.813 44.648 185.365 44.054 183.205 42.866C181.045 41.678 179.353 40.04 178.129 37.952C176.905 35.828 176.293 33.38 176.293 30.608ZM182.881 30.608C182.881 32.228 183.205 33.65 183.853 34.874C184.537 36.098 185.437 37.052 186.553 37.736C187.705 38.42 189.037 38.762 190.549 38.762C192.061 38.762 193.393 38.42 194.545 37.736C195.697 37.052 196.597 36.098 197.245 34.874C197.893 33.65 198.217 32.228 198.217 30.608C198.217 28.952 197.893 27.53 197.245 26.342C196.597 25.118 195.697 24.164 194.545 23.48C193.393 22.796 192.061 22.454 190.549 22.454C189.037 22.454 187.705 22.796 186.553 23.48C185.437 24.164 184.537 25.118 183.853 26.342C183.205 27.53 182.881 28.952 182.881 30.608ZM214.995 44H208.407V17.324H214.455L215.265 22.076L214.509 21.428C215.049 20.132 216.039 18.998 217.479 18.026C218.919 17.018 220.719 16.514 222.879 16.514C225.219 16.514 227.127 17.126 228.603 18.35C230.115 19.574 231.159 21.194 231.735 23.21H230.655C231.051 21.194 232.059 19.574 233.679 18.35C235.335 17.126 237.333 16.514 239.673 16.514C242.913 16.514 245.397 17.432 247.125 19.268C248.853 21.068 249.717 23.498 249.717 26.558V44H243.183V28.286C243.183 26.378 242.697 24.938 241.725 23.966C240.789 22.958 239.529 22.454 237.945 22.454C236.937 22.454 236.001 22.688 235.137 23.156C234.309 23.624 233.643 24.326 233.139 25.262C232.635 26.198 232.383 27.404 232.383 28.88V44H225.795V28.232C225.795 26.36 225.327 24.938 224.391 23.966C223.455 22.994 222.213 22.508 220.665 22.508C219.621 22.508 218.667 22.742 217.803 23.21C216.939 23.642 216.255 24.344 215.751 25.316C215.247 26.252 214.995 27.44 214.995 28.88V44ZM262.502 44.702C259.694 44.702 257.462 43.946 255.806 42.434C254.186 40.886 253.376 38.87 253.376 36.386C253.376 33.938 254.222 31.994 255.914 30.554C257.642 29.078 260.09 28.214 263.258 27.962L271.25 27.314V26.72C271.25 25.496 271.016 24.524 270.548 23.804C270.116 23.048 269.486 22.508 268.658 22.184C267.83 21.824 266.858 21.644 265.742 21.644C263.798 21.644 262.304 22.04 261.26 22.832C260.216 23.588 259.694 24.668 259.694 26.072H254.078C254.078 24.128 254.564 22.454 255.536 21.05C256.544 19.61 257.948 18.494 259.748 17.702C261.584 16.91 263.69 16.514 266.066 16.514C268.478 16.514 270.548 16.946 272.276 17.81C274.004 18.638 275.336 19.898 276.272 21.59C277.208 23.246 277.676 25.316 277.676 27.8V44H271.898L271.412 40.058C270.836 41.426 269.72 42.542 268.064 43.406C266.444 44.27 264.59 44.702 262.502 44.702ZM264.608 39.734C266.66 39.734 268.28 39.158 269.468 38.006C270.692 36.854 271.304 35.252 271.304 33.2V31.796L265.742 32.228C263.69 32.408 262.232 32.84 261.368 33.524C260.504 34.172 260.072 35.036 260.072 36.116C260.072 37.304 260.468 38.204 261.26 38.816C262.052 39.428 263.168 39.734 264.608 39.734ZM293.49 44.702C290.898 44.702 288.666 44.126 286.794 42.974C284.958 41.786 283.518 40.148 282.474 38.06C281.466 35.972 280.962 33.542 280.962 30.77C280.962 27.998 281.466 25.55 282.474 23.426C283.518 21.266 285.012 19.574 286.956 18.35C288.9 17.126 291.204 16.514 293.868 16.514C295.74 16.514 297.45 16.892 298.998 17.648C300.546 18.368 301.734 19.394 302.562 20.726V3.824H309.096V44H303.048L302.616 39.842C301.824 41.354 300.6 42.542 298.944 43.406C297.324 44.27 295.506 44.702 293.49 44.702ZM294.948 38.654C296.496 38.654 297.828 38.33 298.944 37.682C300.06 36.998 300.924 36.044 301.536 34.82C302.184 33.56 302.508 32.138 302.508 30.554C302.508 28.934 302.184 27.53 301.536 26.342C300.924 25.118 300.06 24.164 298.944 23.48C297.828 22.76 296.496 22.4 294.948 22.4C293.436 22.4 292.122 22.76 291.006 23.48C289.89 24.164 289.026 25.118 288.414 26.342C287.838 27.566 287.55 28.97 287.55 30.554C287.55 32.138 287.838 33.542 288.414 34.766C289.026 35.99 289.89 36.944 291.006 37.628C292.122 38.312 293.436 38.654 294.948 38.654ZM312.29 35.9H318.554C318.59 37.052 319.022 37.97 319.85 38.654C320.678 39.338 321.83 39.68 323.306 39.68C324.89 39.68 326.078 39.392 326.87 38.816C327.698 38.24 328.112 37.466 328.112 36.494C328.112 35.846 327.896 35.27 327.464 34.766C327.032 34.262 326.222 33.884 325.034 33.632L320.228 32.498C317.816 31.958 316.016 31.094 314.828 29.906C313.676 28.682 313.1 27.008 313.1 24.884C313.1 23.156 313.55 21.662 314.45 20.402C315.386 19.142 316.646 18.188 318.23 17.54C319.814 16.856 321.632 16.514 323.684 16.514C325.664 16.514 327.41 16.874 328.922 17.594C330.434 18.314 331.604 19.322 332.432 20.618C333.296 21.914 333.746 23.426 333.782 25.154H327.518C327.518 24.002 327.158 23.102 326.438 22.454C325.718 21.77 324.71 21.428 323.414 21.428C322.118 21.428 321.11 21.716 320.39 22.292C319.67 22.868 319.31 23.642 319.31 24.614C319.31 26.09 320.462 27.098 322.766 27.638L327.572 28.772C329.804 29.276 331.478 30.086 332.594 31.202C333.746 32.318 334.322 33.902 334.322 35.954C334.322 37.754 333.854 39.32 332.918 40.652C331.982 41.948 330.668 42.956 328.976 43.676C327.284 44.36 325.34 44.702 323.144 44.702C319.832 44.702 317.186 43.892 315.206 42.272C313.262 40.652 312.29 38.528 312.29 35.9Z" fill="#080D1F" shape-rendering="crispEdges"/>
<path d="M16.016 42.164L14.4677 44.7336L14.487 44.7452L14.5064 44.7565L16.016 42.164ZM9.428 35.09L6.75105 36.4442L6.76064 36.4632L6.77051 36.482L9.428 35.09ZM9.482 13.544L6.83064 12.1403L6.82416 12.1526L6.81779 12.1649L9.482 13.544ZM16.286 6.416L14.7804 3.82118L16.286 6.416ZM34.808 5.606L36.0702 2.88443L34.808 5.606ZM40.964 10.466L38.5937 12.305L38.6015 12.315L38.6094 12.3249L40.964 10.466ZM44.042 17.81V20.81H47.5321L47.008 17.3595L44.042 17.81ZM36.752 17.81L33.8761 18.6638L34.5132 20.81H36.752V17.81ZM32.918 12.464L31.188 14.9149L31.2152 14.9341L31.2429 14.9528L32.918 12.464ZM19.904 12.194L18.3232 9.64429L18.3116 9.65147L18.3001 9.65876L19.904 12.194ZM15.8 16.946L13.0888 15.6617L13.0888 15.6617L15.8 16.946ZM15.8 31.526L13.0803 32.7921L13.0845 32.8012L13.0888 32.8103L15.8 31.526ZM19.904 36.332L18.2636 38.8438L18.2932 38.8631L18.3232 38.8817L19.904 36.332ZM33.08 36.062L31.4159 33.5658L31.4051 33.5731L31.3944 33.5803L33.08 36.062ZM36.968 30.824V27.824H34.7254L34.0907 29.9749L36.968 30.824ZM44.15 30.824L47.1004 31.3675L47.7531 27.824H44.15V30.824ZM40.856 38.06L38.5252 36.1712L38.5153 36.1835L38.5055 36.1958L40.856 38.06ZM34.538 42.92L33.3053 40.185L33.298 40.1882L33.2907 40.1916L34.538 42.92ZM26.06 41.648C22.6471 41.648 19.8383 40.9181 17.5256 39.5715L14.5064 44.7565C17.8817 46.7219 21.7689 47.648 26.06 47.648V41.648ZM17.5643 39.5944C15.2468 38.198 13.4256 36.2564 12.0855 33.698L6.77051 36.482C8.5984 39.9716 11.1692 42.746 14.4677 44.7336L17.5643 39.5944ZM12.105 33.7358C10.809 31.1739 10.106 28.0559 10.106 24.29H4.106C4.106 28.8041 4.95104 32.8861 6.75105 36.4442L12.105 33.7358ZM10.106 24.29C10.106 20.5748 10.8213 17.4827 12.1462 14.9231L6.81779 12.1649C4.97473 15.7253 4.106 19.7972 4.106 24.29H10.106ZM12.1334 14.9477C13.498 12.37 15.3752 10.413 17.7916 9.01081L14.7804 3.82118C11.3648 5.80305 8.70601 8.59797 6.83064 12.1403L12.1334 14.9477ZM17.7916 9.01081C20.1924 7.61775 23.0257 6.878 26.384 6.878V0.877998C22.1103 0.877998 18.2116 1.83024 14.7804 3.82118L17.7916 9.01081ZM26.384 6.878C29.1427 6.878 31.5105 7.38363 33.5458 8.32756L36.0702 2.88443C33.1375 1.52437 29.8893 0.877998 26.384 0.877998V6.878ZM33.5458 8.32756C35.6115 9.28557 37.2781 10.6093 38.5937 12.305L43.3343 8.62701C41.4099 6.14669 38.9725 4.23042 36.0702 2.88443L33.5458 8.32756ZM38.6094 12.3249C39.8752 13.9284 40.7141 15.8781 41.076 18.2605L47.008 17.3595C46.5059 14.0539 45.2928 11.1076 43.3186 8.60707L38.6094 12.3249ZM44.042 14.81H36.752V20.81H44.042V14.81ZM39.6279 16.9562C38.7596 14.0312 37.0824 11.6507 34.5931 9.97523L31.2429 14.9528C32.4976 15.7973 33.3764 16.9808 33.8761 18.6638L39.6279 16.9562ZM34.648 10.0131C32.2175 8.29743 29.3338 7.52 26.168 7.52V13.52C28.3302 13.52 29.9465 14.0386 31.188 14.9149L34.648 10.0131ZM26.168 7.52C23.3034 7.52 20.6541 8.19913 18.3232 9.64429L21.4848 14.7437C22.7539 13.9569 24.2806 13.52 26.168 13.52V7.52ZM18.3001 9.65876C16.014 11.1051 14.2818 13.1431 13.0888 15.6617L18.5112 18.2303C19.2622 16.6449 20.266 15.5149 21.5079 14.7292L18.3001 9.65876ZM13.0888 15.6617C11.8849 18.2033 11.342 21.1109 11.342 24.29H17.342C17.342 21.7811 17.7711 19.7927 18.5112 18.2303L13.0888 15.6617ZM11.342 24.29C11.342 27.3822 11.8922 30.24 13.0803 32.7921L18.5197 30.2599C17.7638 28.636 17.342 26.6698 17.342 24.29H11.342ZM13.0888 32.8103C14.2786 35.322 16.0003 37.3657 18.2636 38.8438L21.5444 33.8202C20.2797 32.9943 19.2654 31.834 18.5112 30.2417L13.0888 32.8103ZM18.3232 38.8817C20.6541 40.3269 23.3034 41.006 26.168 41.006V35.006C24.2806 35.006 22.7539 34.5691 21.4848 33.7823L18.3232 38.8817ZM26.168 41.006C29.364 41.006 32.28 40.232 34.7656 38.5437L31.3944 33.5803C30.064 34.484 28.372 35.006 26.168 35.006V41.006ZM34.7441 38.5582C37.2599 36.8809 38.994 34.5582 39.8453 31.673L34.0907 29.9749C33.646 31.4818 32.7881 32.6511 31.4159 33.5658L34.7441 38.5582ZM36.968 33.824H44.15V27.824H36.968V33.824ZM41.1996 30.2805C40.7832 32.5414 39.8902 34.4868 38.5252 36.1712L43.1868 39.9487C45.2058 37.4572 46.5088 34.5786 47.1004 31.3675L41.1996 30.2805ZM38.5055 36.1958C37.1628 37.8888 35.4479 39.2193 33.3053 40.185L35.7707 45.655C38.7401 44.3167 41.2372 42.4072 43.2065 39.9242L38.5055 36.1958ZM33.2907 40.1916C31.2103 41.1426 28.8178 41.648 26.06 41.648V47.648C29.5662 47.648 32.8257 47.0014 35.7853 45.6484L33.2907 40.1916ZM48.0266 23.318L50.6147 24.8352L50.6203 24.8255L50.6259 24.8159L48.0266 23.318ZM53.1026 18.35L51.6569 15.7214H51.6569L53.1026 18.35ZM67.7906 18.35L66.3262 20.9683L66.3355 20.9735L66.3449 20.9786L67.7906 18.35ZM72.8666 23.318L70.2673 24.8159L70.2729 24.8255L70.2785 24.8352L72.8666 23.318ZM72.8666 37.952L75.4547 39.4692L75.4603 39.4595L75.4659 39.4499L72.8666 37.952ZM67.7906 42.866L66.3449 40.2374L66.3355 40.2425L66.3262 40.2477L67.7906 42.866ZM53.1026 42.866L51.6569 45.4946L53.1026 42.866ZM48.0266 37.952L45.4273 39.4499L45.4329 39.4595L45.4385 39.4692L48.0266 37.952ZM53.7506 34.874L51.0992 36.2777L51.1152 36.3077L51.1318 36.3375L53.7506 34.874ZM56.4506 37.736L54.8829 40.2938L54.9009 40.3048L54.919 40.3156L56.4506 37.736ZM67.1426 34.874L64.4912 33.4703L67.1426 34.874ZM67.1426 26.342L64.4912 27.7457L64.5 27.7622L64.5089 27.7786L67.1426 26.342ZM56.4506 23.48L54.919 20.9004L54.9009 20.9112L54.8829 20.9222L56.4506 23.48ZM53.7506 26.342L51.1318 24.8785L51.1243 24.892L51.1169 24.9054L53.7506 26.342ZM49.1906 30.608C49.1906 28.2906 49.6977 26.3995 50.6147 24.8352L45.4385 21.8008C43.9076 24.4125 43.1906 27.3814 43.1906 30.608H49.1906ZM50.6259 24.8159C51.5744 23.17 52.8662 21.9038 54.5484 20.9786L51.6569 15.7214C49.019 17.1722 46.9268 19.218 45.4273 21.8201L50.6259 24.8159ZM54.5484 20.9786C56.2183 20.0602 58.1594 19.568 60.4466 19.568V13.568C57.2618 13.568 54.3069 14.2638 51.6569 15.7213L54.5484 20.9786ZM60.4466 19.568C62.7782 19.568 64.7088 20.0636 66.3262 20.9683L69.2551 15.7317C66.6244 14.2604 63.6591 13.568 60.4466 13.568V19.568ZM66.3449 20.9786C68.027 21.9038 69.3188 23.17 70.2673 24.8159L75.4659 21.8201C73.9664 19.218 71.8742 17.1722 69.2364 15.7214L66.3449 20.9786ZM70.2785 24.8352C71.1956 26.3995 71.7026 28.2906 71.7026 30.608H77.7026C77.7026 27.3814 76.9857 24.4125 75.4547 21.8008L70.2785 24.8352ZM71.7026 30.608C71.7026 32.9243 71.1959 34.8427 70.2673 36.4541L75.4659 39.4499C76.9853 36.8133 77.7026 33.8357 77.7026 30.608H71.7026ZM70.2785 36.4348C69.3334 38.0471 68.0401 39.305 66.3449 40.2374L69.2364 45.4946C71.8612 44.051 73.9518 42.0329 75.4547 39.4692L70.2785 36.4348ZM66.3262 40.2477C64.7088 41.1524 62.7782 41.648 60.4466 41.648V47.648C63.6591 47.648 66.6244 46.9556 69.2551 45.4843L66.3262 40.2477ZM60.4466 41.648C58.1594 41.648 56.2183 41.1558 54.5484 40.2374L51.6569 45.4946C54.3069 46.9522 57.2618 47.648 60.4466 47.648V41.648ZM54.5484 40.2374C52.8532 39.305 51.5598 38.0471 50.6147 36.4348L45.4385 39.4692C46.9414 42.0329 49.0321 44.051 51.6569 45.4946L54.5484 40.2374ZM50.6259 36.4541C49.6973 34.8427 49.1906 32.9243 49.1906 30.608H43.1906C43.1906 33.8357 43.9079 36.8133 45.4273 39.4499L50.6259 36.4541ZM49.7786 30.608C49.7786 32.6341 50.1863 34.5532 51.0992 36.2777L56.402 33.4703C56.0189 32.7468 55.7786 31.8219 55.7786 30.608H49.7786ZM51.1318 36.3375C52.0482 37.9773 53.2974 39.322 54.8829 40.2938L58.0183 35.1782C57.3718 34.782 56.8211 34.2187 56.3694 33.4105L51.1318 36.3375ZM54.919 40.3156C56.5918 41.3088 58.4664 41.762 60.4466 41.762V35.762C59.4028 35.762 58.6134 35.5312 57.9822 35.1564L54.919 40.3156ZM60.4466 41.762C62.4268 41.762 64.3014 41.3088 65.9742 40.3156L62.911 35.1564C62.2798 35.5312 61.4904 35.762 60.4466 35.762V41.762ZM65.9742 40.3156C67.617 39.3402 68.8971 37.9718 69.794 36.2777L64.4912 33.4703C64.0922 34.2242 63.5722 34.7638 62.911 35.1564L65.9742 40.3156ZM69.794 36.2777C70.7069 34.5532 71.1146 32.6341 71.1146 30.608H65.1146C65.1146 31.8219 64.8743 32.7468 64.4912 33.4703L69.794 36.2777ZM71.1146 30.608C71.1146 28.5612 70.7128 26.6224 69.7763 24.9054L64.5089 27.7786C64.8684 28.4376 65.1146 29.3428 65.1146 30.608H71.1146ZM69.794 24.9383C68.8971 23.2442 67.617 21.8758 65.9742 20.9004L62.911 26.0596C63.5722 26.4522 64.0922 26.9918 64.4912 27.7457L69.794 24.9383ZM65.9742 20.9004C64.3014 19.9072 62.4268 19.454 60.4466 19.454V25.454C61.4904 25.454 62.2798 25.6848 62.911 26.0596L65.9742 20.9004ZM60.4466 19.454C58.4664 19.454 56.5918 19.9072 54.919 20.9004L57.9822 26.0596C58.6134 25.6848 59.4028 25.454 60.4466 25.454V19.454ZM54.8829 20.9222C53.2974 21.894 52.0482 23.2387 51.1318 24.8785L56.3694 27.8055C56.8211 26.9973 57.3718 26.434 58.0183 26.0378L54.8829 20.9222ZM51.1169 24.9054C50.1804 26.6224 49.7786 28.5612 49.7786 30.608H55.7786C55.7786 29.3428 56.0248 28.4376 56.3843 27.7786L51.1169 24.9054ZM82.5706 42.974L80.9408 45.4927L80.9694 45.5112L80.9983 45.529L82.5706 42.974ZM78.2506 38.06L75.5489 39.3642L75.558 39.383L75.5673 39.4016L78.2506 38.06ZM78.2506 23.426L75.5495 22.1205L75.5449 22.1301L75.5403 22.1398L78.2506 23.426ZM82.7326 18.35L81.1341 15.8113L82.7326 18.35ZM94.7746 17.648L93.4581 20.3437L93.4836 20.3562L93.5094 20.3682L94.7746 17.648ZM98.3386 20.726L95.7907 22.3098L101.339 31.2346V20.726H98.3386ZM98.3386 3.824V0.823999H95.3386V3.824H98.3386ZM104.873 3.824H107.873V0.823999H104.873V3.824ZM104.873 44V47H107.873V44H104.873ZM98.8246 44L95.8406 44.31L96.1201 47H98.8246V44ZM98.3926 39.842L101.377 39.532L100.349 29.6417L95.7351 38.45L98.3926 39.842ZM94.7206 43.406L93.3329 40.7462L93.3208 40.7525L93.3088 40.7589L94.7206 43.406ZM94.7206 37.682L96.227 40.2764L96.2578 40.2584L96.2883 40.2398L94.7206 37.682ZM97.3126 34.82L94.6447 33.448L94.6369 33.4631L94.6293 33.4784L97.3126 34.82ZM97.3126 26.342L94.6293 27.6836L94.6533 27.7315L94.6789 27.7786L97.3126 26.342ZM94.7206 23.48L93.0942 26.0009L93.1233 26.0197L93.1529 26.0378L94.7206 23.48ZM86.7826 23.48L88.3503 26.0378L88.3798 26.0197L88.409 26.0009L86.7826 23.48ZM84.1906 26.342L81.5073 25.0004L81.4913 25.0323L81.4761 25.0646L84.1906 26.342ZM84.1906 34.766L81.4761 36.0434L81.4913 36.0757L81.5073 36.1076L84.1906 34.766ZM89.2666 41.702C87.129 41.702 85.463 41.2314 84.1429 40.419L80.9983 45.529C83.4221 47.0206 86.2201 47.702 89.2666 47.702V41.702ZM84.2003 40.4553C82.8449 39.5782 81.7549 38.3605 80.9339 36.7184L75.5673 39.4016C76.8342 41.9355 78.6243 43.9938 80.9408 45.4927L84.2003 40.4553ZM80.9522 36.7558C80.1753 35.1464 79.7386 33.1776 79.7386 30.77H73.7386C73.7386 33.9064 74.3098 36.7976 75.5489 39.3642L80.9522 36.7558ZM79.7386 30.77C79.7386 28.3639 80.1748 26.3685 80.9609 24.7122L75.5403 22.1398C74.3103 24.7315 73.7386 27.6321 73.7386 30.77H79.7386ZM80.9516 24.7315C81.7623 23.0542 82.8845 21.7995 84.331 20.8887L81.1341 15.8113C78.6926 17.3485 76.8269 19.4778 75.5495 22.1205L80.9516 24.7315ZM84.331 20.8887C85.724 20.0116 87.4541 19.514 89.6446 19.514V13.514C86.507 13.514 83.6292 14.2404 81.1341 15.8113L84.331 20.8887ZM89.6446 19.514C91.1005 19.514 92.3547 19.8049 93.4581 20.3437L96.0911 14.9523C94.0984 13.9791 91.9326 13.514 89.6446 13.514V19.514ZM93.5094 20.3682C94.5773 20.8648 95.298 21.5171 95.7907 22.3098L100.886 19.1422C99.7232 17.2709 98.0679 15.8711 96.0398 14.9278L93.5094 20.3682ZM101.339 20.726V3.824H95.3386V20.726H101.339ZM98.3386 6.824H104.873V0.823999H98.3386V6.824ZM101.873 3.824V44H107.873V3.824H101.873ZM104.873 41H98.8246V47H104.873V41ZM101.809 43.69L101.377 39.532L95.4086 40.152L95.8406 44.31L101.809 43.69ZM95.7351 38.45C95.2539 39.3685 94.4998 40.1374 93.3329 40.7462L96.1083 46.0658C98.2533 44.9466 99.9472 43.3395 101.05 41.234L95.7351 38.45ZM93.3088 40.7589C92.1648 41.3691 90.8394 41.702 89.2666 41.702V47.702C91.7257 47.702 94.0364 47.1709 96.1323 46.0531L93.3088 40.7589ZM90.7246 41.654C92.6959 41.654 94.5699 41.2386 96.227 40.2764L93.2142 35.0876C92.6393 35.4214 91.8492 35.654 90.7246 35.654V41.654ZM96.2883 40.2398C97.9048 39.249 99.145 37.8634 99.9959 36.1616L94.6293 33.4784C94.2562 34.2246 93.7683 34.747 93.1529 35.1242L96.2883 40.2398ZM99.9804 36.192C100.871 34.4597 101.285 32.5582 101.285 30.554H95.2846C95.2846 31.7178 95.0498 32.6603 94.6447 33.448L99.9804 36.192ZM101.285 30.554C101.285 28.5307 100.878 26.6133 99.9463 24.9054L94.6789 27.7786C95.0434 28.4467 95.2846 29.3373 95.2846 30.554H101.285ZM99.9959 25.0004C99.145 23.2986 97.9048 21.913 96.2883 20.9222L93.1529 26.0378C93.7683 26.415 94.2562 26.9374 94.6293 27.6836L99.9959 25.0004ZM96.347 20.9591C94.6703 19.8774 92.752 19.4 90.7246 19.4V25.4C91.7932 25.4 92.5389 25.6426 93.0942 26.0009L96.347 20.9591ZM90.7246 19.4C88.7178 19.4 86.8216 19.8846 85.1562 20.9591L88.409 26.0009C88.9755 25.6354 89.7074 25.4 90.7246 25.4V19.4ZM85.2149 20.9222C83.5983 21.913 82.3582 23.2986 81.5073 25.0004L86.8739 27.6836C87.247 26.9374 87.7348 26.415 88.3503 26.0378L85.2149 20.9222ZM81.4761 25.0646C80.6826 26.7509 80.3266 28.6033 80.3266 30.554H86.3266C86.3266 29.3367 86.5466 28.3811 86.905 27.6194L81.4761 25.0646ZM80.3266 30.554C80.3266 32.5047 80.6826 34.3571 81.4761 36.0434L86.905 33.4886C86.5466 32.7269 86.3266 31.7713 86.3266 30.554H80.3266ZM81.5073 36.1076C82.3582 37.8094 83.5983 39.195 85.2149 40.1858L88.3503 35.0702C87.7348 34.693 87.247 34.1706 86.8739 33.4244L81.5073 36.1076ZM85.2149 40.1858C86.872 41.2015 88.7466 41.654 90.7246 41.654V35.654C89.6785 35.654 88.9251 35.4225 88.3503 35.0702L85.2149 40.1858ZM115.032 42.92L113.475 45.4844L113.502 45.5006L113.529 45.5163L115.032 42.92ZM110.28 37.952L107.643 39.3823L107.648 39.3918L107.653 39.4012L110.28 37.952ZM110.226 23.318L112.882 24.7134L110.226 23.318ZM114.924 18.35L116.447 20.9346L116.464 20.9246L116.481 20.9144L114.924 18.35ZM128.802 18.242L127.273 20.8229L127.291 20.8334L127.309 20.8438L128.802 18.242ZM133.284 22.94L130.62 24.3196L130.63 24.3382L130.64 24.3567L133.284 22.94ZM134.904 32.174L134.911 35.174L137.904 35.1669V32.174H134.904ZM112.008 32.228L109.009 32.1511L108.93 35.2353L112.015 35.228L112.008 32.228ZM112.116 28.016V25.016H109.192L109.117 27.9391L112.116 28.016ZM128.37 28.016V31.016H131.37V28.016H128.37ZM126.588 23.588L124.501 25.7427L124.517 25.7588L124.534 25.7745L126.588 23.588ZM117.948 22.886L116.405 20.3135L116.385 20.3252L116.366 20.3371L117.948 22.886ZM115.572 25.802L118.341 26.9558L115.572 25.802ZM116.598 37.088L114.289 39.003L114.303 39.0195L114.316 39.0358L116.598 37.088ZM126.588 38.276L125.091 35.6761L125.074 35.6862L125.057 35.6964L126.588 38.276ZM128.91 35.36V32.36H126.647L126.026 34.5358L128.91 35.36ZM135.012 35.36L137.955 35.9414L138.663 32.36H135.012V35.36ZM130.692 42.218L128.941 39.782L128.932 39.7885L128.923 39.7951L130.692 42.218ZM122.052 41.702C119.893 41.702 118.082 41.2194 116.535 40.3237L113.529 45.5163C116.086 46.9966 118.955 47.702 122.052 47.702V41.702ZM116.589 40.3556C115.026 39.4067 113.809 38.1374 112.907 36.5028L107.653 39.4012C109.056 41.9426 111.006 43.9853 113.475 45.4844L116.589 40.3556ZM112.917 36.5217C112.033 34.8922 111.552 32.9654 111.552 30.662H105.552C105.552 33.8306 106.223 36.7638 107.643 39.3823L112.917 36.5217ZM111.552 30.662C111.552 28.3003 112.025 26.3445 112.882 24.7134L107.57 21.9226C106.195 24.5395 105.552 27.4797 105.552 30.662H111.552ZM112.882 24.7134C113.745 23.0702 114.925 21.8318 116.447 20.9346L113.401 15.7654C110.892 17.2442 108.939 19.3178 107.57 21.9226L112.882 24.7134ZM116.481 20.9144C117.982 20.0031 119.737 19.514 121.836 19.514V13.514C118.751 13.514 115.898 14.2489 113.367 15.7856L116.481 20.9144ZM121.836 19.514C124.103 19.514 125.875 19.9944 127.273 20.8229L130.332 15.6611C127.842 14.1856 124.969 13.514 121.836 13.514V19.514ZM127.309 20.8438C128.746 21.6692 129.837 22.8079 130.62 24.3196L135.948 21.5604C134.643 19.0401 132.746 17.0468 130.296 15.6402L127.309 20.8438ZM130.64 24.3567C131.439 25.8485 131.904 27.7511 131.904 30.176H137.904C137.904 26.9849 137.289 24.0635 135.929 21.5233L130.64 24.3567ZM131.904 30.176V32.174H137.904V30.176H131.904ZM134.897 29.174L112.001 29.228L112.015 35.228L134.911 35.174L134.897 29.174ZM115.007 32.3049L115.115 28.0929L109.117 27.9391L109.009 32.1511L115.007 32.3049ZM112.116 31.016H128.37V25.016H112.116V31.016ZM131.37 28.016C131.37 25.4672 130.513 23.1589 128.642 21.4015L124.534 25.7745C125.039 26.2491 125.37 26.8928 125.37 28.016H131.37ZM128.676 21.4333C126.839 19.6543 124.457 18.914 121.89 18.914V24.914C123.284 24.914 124.033 25.2897 124.501 25.7427L128.676 21.4333ZM121.89 18.914C119.923 18.914 118.047 19.3281 116.405 20.3135L119.492 25.4585C120.009 25.1479 120.762 24.914 121.89 24.914V18.914ZM116.366 20.3371C114.717 21.3607 113.548 22.8602 112.803 24.6482L118.341 26.9558C118.676 26.1518 119.091 25.7073 119.53 25.4349L116.366 20.3371ZM112.803 24.6482C112.069 26.4096 111.762 28.4107 111.762 30.554H117.762C117.762 28.9533 117.995 27.7864 118.341 26.9558L112.803 24.6482ZM111.762 30.554C111.762 33.7957 112.442 36.7761 114.289 39.003L118.907 35.173C118.306 34.4479 117.762 33.0723 117.762 30.554H111.762ZM114.316 39.0358C116.29 41.3475 119.082 42.302 122.16 42.302V36.302C120.342 36.302 119.426 35.7805 118.88 35.1402L114.316 39.0358ZM122.16 42.302C124.32 42.302 126.371 41.8937 128.12 40.8556L125.057 35.6964C124.501 36.0263 123.6 36.302 122.16 36.302V42.302ZM128.085 40.8759C129.914 39.8227 131.21 38.2314 131.795 36.1842L126.026 34.5358C125.891 35.0086 125.638 35.3613 125.091 35.6761L128.085 40.8759ZM128.91 38.36H135.012V32.36H128.91V38.36ZM132.069 34.7786C131.633 36.9867 130.595 38.5932 128.941 39.782L132.443 44.654C135.397 42.5308 137.239 39.5653 137.955 35.9414L132.069 34.7786ZM128.923 39.7951C127.282 40.9931 125.065 41.702 122.052 41.702V47.702C126.023 47.702 129.566 46.7549 132.461 44.6409L128.923 39.7951ZM146.333 44V47H149.333V44H146.333ZM139.529 44H136.529V47H139.529V44ZM139.529 4.526V1.526H136.529V4.526H139.529ZM146.387 4.526L148.89 2.87196L148 1.526H146.387V4.526ZM166.907 35.576V38.576H172.485L169.41 33.922L166.907 35.576ZM164.909 35.576H161.909V38.576H164.909V35.576ZM164.909 4.526V1.526H161.909V4.526H164.909ZM171.713 4.526H174.713V1.526H171.713V4.526ZM171.713 44V47H174.713V44H171.713ZM164.909 44L162.409 45.6591L163.299 47H164.909V44ZM144.335 13.004V10.004H138.743L141.835 14.6631L144.335 13.004ZM146.333 13.004H149.333V10.004H146.333V13.004ZM146.333 41H139.529V47H146.333V41ZM142.529 44V4.526H136.529V44H142.529ZM139.529 7.526H146.387V1.526H139.529V7.526ZM143.884 6.18004L164.404 37.23L169.41 33.922L148.89 2.87196L143.884 6.18004ZM166.907 32.576H164.909V38.576H166.907V32.576ZM167.909 35.576V4.526H161.909V35.576H167.909ZM164.909 7.526H171.713V1.526H164.909V7.526ZM168.713 4.526V44H174.713V4.526H168.713ZM171.713 41H164.909V47H171.713V41ZM167.408 42.3409L146.834 11.3449L141.835 14.6631L162.409 45.6591L167.408 42.3409ZM144.335 16.004H146.333V10.004H144.335V16.004ZM143.333 13.004V44H149.333V13.004H143.333ZM178.129 23.318L180.717 24.8352L180.722 24.8255L180.728 24.8159L178.129 23.318ZM183.205 18.35L181.759 15.7214L183.205 18.35ZM197.893 18.35L196.428 20.9683L196.438 20.9735L196.447 20.9786L197.893 18.35ZM202.969 23.318L200.369 24.8159L200.375 24.8255L200.381 24.8352L202.969 23.318ZM202.969 37.952L205.557 39.4692L205.562 39.4595L205.568 39.4499L202.969 37.952ZM197.893 42.866L196.447 40.2374L196.438 40.2425L196.428 40.2477L197.893 42.866ZM183.205 42.866L181.759 45.4946L183.205 42.866ZM178.129 37.952L175.529 39.4499L175.535 39.4595L175.541 39.4692L178.129 37.952ZM183.853 34.874L181.201 36.2777L181.217 36.3077L181.234 36.3375L183.853 34.874ZM186.553 37.736L184.985 40.2938L185.003 40.3048L185.021 40.3156L186.553 37.736ZM197.245 34.874L194.593 33.4703L197.245 34.874ZM197.245 26.342L194.593 27.7457L194.602 27.7622L194.611 27.7786L197.245 26.342ZM186.553 23.48L185.021 20.9004L185.003 20.9112L184.985 20.9222L186.553 23.48ZM183.853 26.342L181.234 24.8785L181.226 24.892L181.219 24.9054L183.853 26.342ZM179.293 30.608C179.293 28.2906 179.8 26.3995 180.717 24.8352L175.541 21.8008C174.01 24.4125 173.293 27.3814 173.293 30.608H179.293ZM180.728 24.8159C181.676 23.17 182.968 21.9038 184.65 20.9786L181.759 15.7214C179.121 17.1722 177.029 19.218 175.529 21.8201L180.728 24.8159ZM184.65 20.9786C186.32 20.0602 188.261 19.568 190.549 19.568V13.568C187.364 13.568 184.409 14.2638 181.759 15.7213L184.65 20.9786ZM190.549 19.568C192.88 19.568 194.811 20.0636 196.428 20.9683L199.357 15.7317C196.726 14.2604 193.761 13.568 190.549 13.568V19.568ZM196.447 20.9786C198.129 21.9038 199.421 23.17 200.369 24.8159L205.568 21.8201C204.068 19.218 201.976 17.1722 199.338 15.7214L196.447 20.9786ZM200.381 24.8352C201.298 26.3995 201.805 28.2906 201.805 30.608H207.805C207.805 27.3814 207.088 24.4125 205.557 21.8008L200.381 24.8352ZM201.805 30.608C201.805 32.9243 201.298 34.8427 200.369 36.4541L205.568 39.4499C207.087 36.8133 207.805 33.8357 207.805 30.608H201.805ZM200.381 36.4348C199.435 38.0471 198.142 39.305 196.447 40.2374L199.338 45.4946C201.963 44.051 204.054 42.0329 205.557 39.4692L200.381 36.4348ZM196.428 40.2477C194.811 41.1524 192.88 41.648 190.549 41.648V47.648C193.761 47.648 196.726 46.9556 199.357 45.4843L196.428 40.2477ZM190.549 41.648C188.261 41.648 186.32 41.1558 184.65 40.2374L181.759 45.4946C184.409 46.9522 187.364 47.648 190.549 47.648V41.648ZM184.65 40.2374C182.955 39.305 181.662 38.0471 180.717 36.4348L175.541 39.4692C177.043 42.0329 179.134 44.051 181.759 45.4946L184.65 40.2374ZM180.728 36.4541C179.799 34.8427 179.293 32.9243 179.293 30.608H173.293C173.293 33.8357 174.01 36.8133 175.529 39.4499L180.728 36.4541ZM179.881 30.608C179.881 32.6341 180.288 34.5532 181.201 36.2777L186.504 33.4703C186.121 32.7468 185.881 31.8219 185.881 30.608H179.881ZM181.234 36.3375C182.15 37.9773 183.399 39.322 184.985 40.2938L188.12 35.1782C187.474 34.782 186.923 34.2187 186.471 33.4105L181.234 36.3375ZM185.021 40.3156C186.694 41.3088 188.568 41.762 190.549 41.762V35.762C189.505 35.762 188.715 35.5312 188.084 35.1564L185.021 40.3156ZM190.549 41.762C192.529 41.762 194.403 41.3088 196.076 40.3156L193.013 35.1564C192.382 35.5312 191.592 35.762 190.549 35.762V41.762ZM196.076 40.3156C197.719 39.3402 198.999 37.9718 199.896 36.2777L194.593 33.4703C194.194 34.2242 193.674 34.7638 193.013 35.1564L196.076 40.3156ZM199.896 36.2777C200.809 34.5532 201.217 32.6341 201.217 30.608H195.217C195.217 31.8219 194.976 32.7468 194.593 33.4703L199.896 36.2777ZM201.217 30.608C201.217 28.5612 200.815 26.6224 199.878 24.9054L194.611 27.7786C194.97 28.4376 195.217 29.3428 195.217 30.608H201.217ZM199.896 24.9383C198.999 23.2442 197.719 21.8758 196.076 20.9004L193.013 26.0596C193.674 26.4522 194.194 26.9918 194.593 27.7457L199.896 24.9383ZM196.076 20.9004C194.403 19.9072 192.529 19.454 190.549 19.454V25.454C191.592 25.454 192.382 25.6848 193.013 26.0596L196.076 20.9004ZM190.549 19.454C188.568 19.454 186.694 19.9072 185.021 20.9004L188.084 26.0596C188.715 25.6848 189.505 25.454 190.549 25.454V19.454ZM184.985 20.9222C183.399 21.894 182.15 23.2387 181.234 24.8785L186.471 27.8055C186.923 26.9973 187.474 26.434 188.12 26.0378L184.985 20.9222ZM181.219 24.9054C180.282 26.6224 179.881 28.5612 179.881 30.608H185.881C185.881 29.3428 186.127 28.4376 186.486 27.7786L181.219 24.9054ZM214.995 44V47H217.995V44H214.995ZM208.407 44H205.407V47H208.407V44ZM208.407 17.324V14.324H205.407V17.324H208.407ZM214.455 17.324L217.412 16.8199L216.987 14.324H214.455V17.324ZM215.265 22.076L213.312 24.3538L219.617 29.7581L218.222 21.5719L215.265 22.076ZM214.509 21.428L211.739 20.2742L210.901 22.2868L212.556 23.7058L214.509 21.428ZM217.479 18.026L219.157 20.5125L219.178 20.4983L219.199 20.4837L217.479 18.026ZM228.603 18.35L226.688 20.6593L226.701 20.6706L226.715 20.6817L228.603 18.35ZM231.735 23.21V26.21H235.712L234.619 22.3858L231.735 23.21ZM230.655 23.21L227.711 22.6318L227.008 26.21H230.655V23.21ZM233.679 18.35L231.895 15.9375L231.883 15.9469L231.87 15.9564L233.679 18.35ZM247.125 19.268L244.94 21.3241L244.95 21.3349L244.96 21.3456L247.125 19.268ZM249.717 44V47H252.717V44H249.717ZM243.183 44H240.183V47H243.183V44ZM241.725 23.966L239.526 26.0074L239.564 26.048L239.603 26.0873L241.725 23.966ZM235.137 23.156L233.708 20.5181L233.684 20.531L233.66 20.5443L235.137 23.156ZM233.139 25.262L235.78 26.6843L233.139 25.262ZM232.383 44V47H235.383V44H232.383ZM225.795 44H222.795V47H225.795V44ZM224.391 23.966L226.552 21.8851L224.391 23.966ZM217.803 23.21L219.144 25.8933L219.188 25.8713L219.231 25.8479L217.803 23.21ZM215.751 25.316L218.392 26.7383L218.403 26.7177L218.414 26.6969L215.751 25.316ZM214.995 41H208.407V47H214.995V41ZM211.407 44V17.324H205.407V44H211.407ZM208.407 20.324H214.455V14.324H208.407V20.324ZM211.497 17.8281L212.307 22.5801L218.222 21.5719L217.412 16.8199L211.497 17.8281ZM217.217 19.7982L216.461 19.1502L212.556 23.7058L213.312 24.3538L217.217 19.7982ZM217.278 22.5818C217.544 21.9431 218.087 21.2347 219.157 20.5125L215.8 15.5395C213.99 16.7613 212.553 18.3209 211.739 20.2742L217.278 22.5818ZM219.199 20.4837C220.029 19.9025 221.191 19.514 222.879 19.514V13.514C220.246 13.514 217.808 14.1335 215.758 15.5683L219.199 20.4837ZM222.879 19.514C224.679 19.514 225.861 19.974 226.688 20.6593L230.518 16.0407C228.392 14.278 225.758 13.514 222.879 13.514V19.514ZM226.715 20.6817C227.71 21.487 228.43 22.5626 228.85 24.0342L234.619 22.3858C233.888 19.8254 232.519 17.661 230.49 16.0183L226.715 20.6817ZM231.735 20.21H230.655V26.21H231.735V20.21ZM233.598 23.7882C233.854 22.4869 234.464 21.5169 235.487 20.7436L231.87 15.9564C229.654 17.6311 228.247 19.9011 227.711 22.6318L233.598 23.7882ZM235.462 20.7625C236.533 19.971 237.883 19.514 239.673 19.514V13.514C236.782 13.514 234.137 14.281 231.895 15.9375L235.462 20.7625ZM239.673 19.514C242.335 19.514 243.93 20.2506 244.94 21.3241L249.309 17.2119C246.864 14.6134 243.491 13.514 239.673 13.514V19.514ZM244.96 21.3456C246.036 22.4663 246.717 24.0873 246.717 26.558H252.717C252.717 22.9087 251.669 19.6697 249.289 17.1904L244.96 21.3456ZM246.717 26.558V44H252.717V26.558H246.717ZM249.717 41H243.183V47H249.717V41ZM246.183 44V28.286H240.183V44H246.183ZM246.183 28.286C246.183 25.8967 245.569 23.5682 243.846 21.8447L239.603 26.0873C239.824 26.3078 240.183 26.8593 240.183 28.286H246.183ZM243.923 21.9246C242.331 20.2106 240.224 19.454 237.945 19.454V25.454C238.833 25.454 239.246 25.7054 239.526 26.0074L243.923 21.9246ZM237.945 19.454C236.451 19.454 235.022 19.8062 233.708 20.5181L236.565 25.7939C236.979 25.5698 237.422 25.454 237.945 25.454V19.454ZM233.66 20.5443C232.283 21.3229 231.237 22.4657 230.497 23.8397L235.78 26.6843C236.048 26.1863 236.334 25.9251 236.613 25.7677L233.66 20.5443ZM230.497 23.8397C229.684 25.3495 229.383 27.0903 229.383 28.88H235.383C235.383 27.7177 235.585 27.0465 235.78 26.6843L230.497 23.8397ZM229.383 28.88V44H235.383V28.88H229.383ZM232.383 41H225.795V47H232.383V41ZM228.795 44V28.232H222.795V44H228.795ZM228.795 28.232C228.795 25.8883 228.205 23.6024 226.552 21.8851L222.23 26.0469C222.448 26.2736 222.795 26.8317 222.795 28.232H228.795ZM226.552 21.8851C224.965 20.2377 222.897 19.508 220.665 19.508V25.508C221.528 25.508 221.944 25.7503 222.23 26.0469L226.552 21.8851ZM220.665 19.508C219.154 19.508 217.704 19.8516 216.374 20.5721L219.231 25.8479C219.629 25.6324 220.087 25.508 220.665 25.508V19.508ZM216.461 20.5267C214.956 21.2793 213.843 22.4785 213.087 23.935L218.414 26.6969C218.667 26.2095 218.921 26.0047 219.144 25.8933L216.461 20.5267ZM213.109 23.8937C212.301 25.3942 211.995 27.1118 211.995 28.88H217.995C217.995 27.7682 218.192 27.1097 218.392 26.7383L213.109 23.8937ZM211.995 28.88V44H217.995V28.88H211.995ZM255.806 42.434L253.733 44.603L253.758 44.6265L253.783 44.6495L255.806 42.434ZM255.914 30.554L257.858 32.8386L257.862 32.8351L255.914 30.554ZM263.258 27.962L263.496 30.9526L263.5 30.9522L263.258 27.962ZM271.25 27.314L271.492 30.3042L274.25 30.0806V27.314H271.25ZM270.548 23.804L267.943 25.2924L267.986 25.367L268.033 25.439L270.548 23.804ZM268.658 22.184L267.462 24.9352L267.513 24.9574L267.565 24.9777L268.658 22.184ZM261.26 22.832L263.02 25.2618L263.047 25.2422L263.073 25.2221L261.26 22.832ZM259.694 26.072V29.072H262.694V26.072H259.694ZM254.078 26.072H251.078V29.072H254.078V26.072ZM255.536 21.05L253.078 19.3296L253.074 19.336L253.069 19.3424L255.536 21.05ZM259.748 17.702L258.56 14.9474L258.55 14.9517L258.54 14.9561L259.748 17.702ZM272.276 17.81L270.934 20.4933L270.957 20.5046L270.98 20.5154L272.276 17.81ZM276.272 21.59L273.647 23.0422L273.654 23.0542L273.66 23.0662L276.272 21.59ZM277.676 44V47H280.676V44H277.676ZM271.898 44L268.921 44.3671L269.245 47H271.898V44ZM271.412 40.058L274.389 39.6909L273.013 28.5251L268.647 38.8938L271.412 40.058ZM268.064 43.406L266.676 40.7462L266.664 40.7525L266.652 40.7589L268.064 43.406ZM269.468 38.006L267.412 35.8214L267.396 35.8367L267.38 35.8523L269.468 38.006ZM271.304 31.796H274.304V28.554L271.072 28.805L271.304 31.796ZM265.742 32.228L265.51 29.237L265.495 29.2382L265.48 29.2395L265.742 32.228ZM261.368 33.524L263.168 35.924L263.199 35.9005L263.23 35.8761L261.368 33.524ZM261.26 38.816L259.426 41.1899L261.26 38.816ZM262.502 41.702C260.246 41.702 258.802 41.1073 257.829 40.2185L253.783 44.6495C256.122 46.7847 259.142 47.702 262.502 47.702V41.702ZM257.879 40.265C256.918 39.3475 256.376 38.1489 256.376 36.386H250.376C250.376 39.5911 251.454 42.4245 253.733 44.603L257.879 40.265ZM256.376 36.386C256.376 34.7165 256.909 33.6463 257.858 32.8386L253.97 28.2694C251.535 30.3417 250.376 33.1595 250.376 36.386H256.376ZM257.862 32.8351C258.951 31.9049 260.714 31.1738 263.496 30.9526L263.02 24.9714C259.466 25.2542 256.332 26.2511 253.965 28.2729L257.862 32.8351ZM263.5 30.9522L271.492 30.3042L271.008 24.3238L263.016 24.9718L263.5 30.9522ZM274.25 27.314V26.72H268.25V27.314H274.25ZM274.25 26.72C274.25 25.1512 273.955 23.5414 273.063 22.169L268.033 25.439C268.077 25.5066 268.25 25.8408 268.25 26.72H274.25ZM273.153 22.3156C272.373 20.9511 271.203 19.9582 269.751 19.3903L267.565 24.9777C267.769 25.0578 267.859 25.1449 267.943 25.2924L273.153 22.3156ZM269.854 19.4328C268.571 18.8748 267.175 18.644 265.742 18.644V24.644C266.541 24.644 267.089 24.7732 267.462 24.9352L269.854 19.4328ZM265.742 18.644C263.446 18.644 261.211 19.1037 259.447 20.4419L263.073 25.2221C263.397 24.9763 264.15 24.644 265.742 24.644V18.644ZM259.5 20.4022C257.6 21.7786 256.694 23.806 256.694 26.072H262.694C262.694 25.53 262.832 25.3974 263.02 25.2618L259.5 20.4022ZM259.694 23.072H254.078V29.072H259.694V23.072ZM257.078 26.072C257.078 24.6508 257.425 23.5925 258.003 22.7576L253.069 19.3424C251.703 21.3155 251.078 23.6052 251.078 26.072H257.078ZM257.994 22.7704C258.651 21.832 259.597 21.0458 260.956 20.4479L258.54 14.9561C256.299 15.9422 254.437 17.388 253.078 19.3296L257.994 22.7704ZM260.936 20.4566C262.333 19.854 264.023 19.514 266.066 19.514V13.514C263.357 13.514 260.835 13.966 258.56 14.9474L260.936 20.4566ZM266.066 19.514C268.125 19.514 269.713 19.8829 270.934 20.4933L273.618 15.1267C271.382 14.0091 268.831 13.514 266.066 13.514V19.514ZM270.98 20.5154C272.14 21.0713 273.01 21.8905 273.647 23.0422L278.897 20.1378C277.662 17.9055 275.868 16.2047 273.572 15.1046L270.98 20.5154ZM273.66 23.0662C274.275 24.1546 274.676 25.6795 274.676 27.8H280.676C280.676 24.9525 280.14 22.3374 278.884 20.1138L273.66 23.0662ZM274.676 27.8V44H280.676V27.8H274.676ZM277.676 41H271.898V47H277.676V41ZM274.875 43.6329L274.389 39.6909L268.435 40.4251L268.921 44.3671L274.875 43.6329ZM268.647 38.8938C268.406 39.4661 267.877 40.1197 266.676 40.7462L269.452 46.0658C271.563 44.9643 273.266 43.3859 274.177 41.2222L268.647 38.8938ZM266.652 40.7589C265.523 41.3611 264.166 41.702 262.502 41.702V47.702C265.014 47.702 267.365 47.1789 269.476 46.0531L266.652 40.7589ZM264.608 42.734C267.242 42.734 269.681 41.9778 271.556 40.1597L267.38 35.8523C266.878 36.3382 266.078 36.734 264.608 36.734V42.734ZM271.524 40.1906C273.48 38.3499 274.304 35.8829 274.304 33.2H268.304C268.304 34.6211 267.904 35.3581 267.412 35.8214L271.524 40.1906ZM274.304 33.2V31.796H268.304V33.2H274.304ZM271.072 28.805L265.51 29.237L265.974 35.219L271.536 34.787L271.072 28.805ZM265.48 29.2395C263.277 29.4327 261.081 29.9251 259.506 31.1719L263.23 35.8761C263.383 35.7549 264.103 35.3833 266.004 35.2165L265.48 29.2395ZM259.568 31.124C257.949 32.3386 257.072 34.0917 257.072 36.116H263.072C263.072 36.0466 263.079 36.0095 263.082 35.9973C263.084 35.9863 263.084 35.9896 263.079 35.9996C263.074 36.0097 263.071 36.0114 263.079 36.0029C263.087 35.9934 263.112 35.9656 263.168 35.924L259.568 31.124ZM257.072 36.116C257.072 38.0382 257.757 39.9004 259.426 41.1899L263.094 36.4421C263.084 36.4341 263.089 36.4363 263.099 36.4495C263.104 36.4554 263.108 36.4613 263.111 36.4666C263.114 36.4719 263.115 36.4747 263.115 36.4738C263.114 36.4728 263.104 36.4495 263.094 36.394C263.083 36.3374 263.072 36.2471 263.072 36.116H257.072ZM259.426 41.1899C260.93 42.3519 262.786 42.734 264.608 42.734V36.734C263.55 36.734 263.174 36.5041 263.094 36.4421L259.426 41.1899ZM286.794 42.974L285.164 45.4927L285.193 45.5112L285.222 45.529L286.794 42.974ZM282.474 38.06L279.772 39.3642L279.781 39.383L279.791 39.4016L282.474 38.06ZM282.474 23.426L279.773 22.1205L279.768 22.1301L279.764 22.1398L282.474 23.426ZM286.956 18.35L285.358 15.8113L286.956 18.35ZM298.998 17.648L297.681 20.3437L297.707 20.3562L297.733 20.3682L298.998 17.648ZM302.562 20.726L300.014 22.3098L305.562 31.2346V20.726H302.562ZM302.562 3.824V0.823999H299.562V3.824H302.562ZM309.096 3.824H312.096V0.823999H309.096V3.824ZM309.096 44V47H312.096V44H309.096ZM303.048 44L300.064 44.31L300.343 47H303.048V44ZM302.616 39.842L305.6 39.532L304.572 29.6417L299.958 38.45L302.616 39.842ZM298.944 43.406L297.556 40.7462L297.544 40.7525L297.532 40.7589L298.944 43.406ZM298.944 37.682L300.45 40.2764L300.481 40.2584L300.512 40.2398L298.944 37.682ZM301.536 34.82L298.868 33.448L298.86 33.4631L298.853 33.4784L301.536 34.82ZM301.536 26.342L298.853 27.6836L298.877 27.7315L298.902 27.7786L301.536 26.342ZM298.944 23.48L297.318 26.0009L297.347 26.0197L297.376 26.0378L298.944 23.48ZM291.006 23.48L292.574 26.0378L292.603 26.0197L292.632 26.0009L291.006 23.48ZM288.414 26.342L285.731 25.0004L285.715 25.0323L285.699 25.0646L288.414 26.342ZM288.414 34.766L285.699 36.0434L285.715 36.0757L285.731 36.1076L288.414 34.766ZM293.49 41.702C291.352 41.702 289.686 41.2314 288.366 40.419L285.222 45.529C287.645 47.0206 290.443 47.702 293.49 47.702V41.702ZM288.424 40.4553C287.068 39.5782 285.978 38.3605 285.157 36.7184L279.791 39.4016C281.058 41.9355 282.848 43.9938 285.164 45.4927L288.424 40.4553ZM285.176 36.7558C284.399 35.1464 283.962 33.1776 283.962 30.77H277.962C277.962 33.9064 278.533 36.7976 279.772 39.3642L285.176 36.7558ZM283.962 30.77C283.962 28.3639 284.398 26.3685 285.184 24.7122L279.764 22.1398C278.534 24.7315 277.962 27.6321 277.962 30.77H283.962ZM285.175 24.7315C285.986 23.0542 287.108 21.7995 288.554 20.8887L285.358 15.8113C282.916 17.3485 281.05 19.4778 279.773 22.1205L285.175 24.7315ZM288.554 20.8887C289.947 20.0116 291.678 19.514 293.868 19.514V13.514C290.73 13.514 287.853 14.2404 285.358 15.8113L288.554 20.8887ZM293.868 19.514C295.324 19.514 296.578 19.8049 297.681 20.3437L300.314 14.9523C298.322 13.9791 296.156 13.514 293.868 13.514V19.514ZM297.733 20.3682C298.801 20.8648 299.521 21.5171 300.014 22.3098L305.11 19.1422C303.947 17.2709 302.291 15.8711 300.263 14.9278L297.733 20.3682ZM305.562 20.726V3.824H299.562V20.726H305.562ZM302.562 6.824H309.096V0.823999H302.562V6.824ZM306.096 3.824V44H312.096V3.824H306.096ZM309.096 41H303.048V47H309.096V41ZM306.032 43.69L305.6 39.532L299.632 40.152L300.064 44.31L306.032 43.69ZM299.958 38.45C299.477 39.3685 298.723 40.1374 297.556 40.7462L300.332 46.0658C302.477 44.9466 304.171 43.3395 305.273 41.234L299.958 38.45ZM297.532 40.7589C296.388 41.3691 295.063 41.702 293.49 41.702V47.702C295.949 47.702 298.26 47.1709 300.356 46.0531L297.532 40.7589ZM294.948 41.654C296.919 41.654 298.793 41.2386 300.45 40.2764L297.438 35.0876C296.863 35.4214 296.073 35.654 294.948 35.654V41.654ZM300.512 40.2398C302.128 39.249 303.368 37.8634 304.219 36.1616L298.853 33.4784C298.48 34.2246 297.992 34.747 297.376 35.1242L300.512 40.2398ZM304.204 36.192C305.095 34.4597 305.508 32.5582 305.508 30.554H299.508C299.508 31.7178 299.273 32.6603 298.868 33.448L304.204 36.192ZM305.508 30.554C305.508 28.5307 305.101 26.6133 304.17 24.9054L298.902 27.7786C299.267 28.4467 299.508 29.3373 299.508 30.554H305.508ZM304.219 25.0004C303.368 23.2986 302.128 21.913 300.512 20.9222L297.376 26.0378C297.992 26.415 298.48 26.9374 298.853 27.6836L304.219 25.0004ZM300.57 20.9591C298.894 19.8774 296.975 19.4 294.948 19.4V25.4C296.017 25.4 296.762 25.6426 297.318 26.0009L300.57 20.9591ZM294.948 19.4C292.941 19.4 291.045 19.8846 289.38 20.9591L292.632 26.0009C293.199 25.6354 293.931 25.4 294.948 25.4V19.4ZM289.438 20.9222C287.822 21.913 286.582 23.2986 285.731 25.0004L291.097 27.6836C291.47 26.9374 291.958 26.415 292.574 26.0378L289.438 20.9222ZM285.699 25.0646C284.906 26.7509 284.55 28.6033 284.55 30.554H290.55C290.55 29.3367 290.77 28.3811 291.128 27.6194L285.699 25.0646ZM284.55 30.554C284.55 32.5047 284.906 34.3571 285.699 36.0434L291.128 33.4886C290.77 32.7269 290.55 31.7713 290.55 30.554H284.55ZM285.731 36.1076C286.582 37.8094 287.822 39.195 289.438 40.1858L292.574 35.0702C291.958 34.693 291.47 34.1706 291.097 33.4244L285.731 36.1076ZM289.438 40.1858C291.095 41.2015 292.97 41.654 294.948 41.654V35.654C293.902 35.654 293.148 35.4225 292.574 35.0702L289.438 40.1858ZM312.29 35.9V32.9H309.29V35.9H312.29ZM318.554 35.9L321.552 35.8063L321.461 32.9H318.554V35.9ZM326.87 38.816L325.156 36.3533L325.13 36.3713L325.105 36.3898L326.87 38.816ZM327.464 34.766L329.741 32.8136V32.8136L327.464 34.766ZM325.034 33.632L324.345 36.5518L324.378 36.5596L324.411 36.5667L325.034 33.632ZM320.228 32.498L320.917 29.5782L320.9 29.5742L320.883 29.5705L320.228 32.498ZM314.828 29.906L312.643 31.9621L312.674 31.9952L312.706 32.0273L314.828 29.906ZM314.45 20.402L312.041 18.613L312.025 18.6355L312.008 18.6583L314.45 20.402ZM318.23 17.54L319.365 20.3166L319.392 20.3057L319.419 20.2942L318.23 17.54ZM328.922 17.594L330.211 14.8854V14.8854L328.922 17.594ZM332.432 20.618L329.903 22.2332L329.919 22.2578L329.935 22.2821L332.432 20.618ZM333.782 25.154V28.154H336.845L336.781 25.0915L333.782 25.154ZM327.518 25.154H324.518V28.154H327.518V25.154ZM326.438 22.454L324.371 24.629L324.401 24.6568L324.431 24.6839L326.438 22.454ZM320.39 22.292L322.264 24.6346L320.39 22.292ZM322.766 27.638L323.454 24.7182L323.45 24.7172L322.766 27.638ZM327.572 28.772L326.883 31.6918L326.897 31.6951L326.911 31.6983L327.572 28.772ZM332.594 31.202L330.472 33.3233L330.489 33.3402L330.506 33.3567L332.594 31.202ZM332.918 40.652L335.35 42.4085L335.361 42.3927L335.372 42.3768L332.918 40.652ZM328.976 43.676L330.1 46.4573L330.125 46.4471L330.15 46.4365L328.976 43.676ZM315.206 42.272L313.285 44.5767L313.295 44.5853L313.306 44.5939L315.206 42.272ZM312.29 38.9H318.554V32.9H312.29V38.9ZM315.555 35.9937C315.616 37.9362 316.393 39.69 317.939 40.9669L321.76 36.3411C321.65 36.25 321.563 36.1678 321.552 35.8063L315.555 35.9937ZM317.939 40.9669C319.475 42.2362 321.392 42.68 323.306 42.68V36.68C322.267 36.68 321.88 36.4398 321.76 36.3411L317.939 40.9669ZM323.306 42.68C325.164 42.68 327.1 42.3581 328.634 41.2422L325.105 36.3898C325.055 36.4259 324.615 36.68 323.306 36.68V42.68ZM328.583 41.2787C330.181 40.167 331.112 38.4913 331.112 36.494H325.112C325.112 36.5231 325.109 36.5202 325.115 36.4937C325.121 36.4659 325.134 36.4282 325.156 36.3885C325.177 36.3492 325.197 36.3247 325.205 36.3157C325.212 36.3078 325.201 36.3223 325.156 36.3533L328.583 41.2787ZM331.112 36.494C331.112 35.111 330.627 33.8468 329.741 32.8136L325.186 36.7184C325.192 36.7252 325.165 36.6949 325.141 36.6294C325.116 36.5628 325.112 36.5103 325.112 36.494H331.112ZM329.741 32.8136C328.649 31.5388 327.021 30.9868 325.656 30.6973L324.411 36.5667C324.856 36.661 325.123 36.7577 325.263 36.823C325.408 36.8907 325.326 36.8825 325.186 36.7184L329.741 32.8136ZM325.723 30.7122L320.917 29.5782L319.539 35.4178L324.345 36.5518L325.723 30.7122ZM320.883 29.5705C318.78 29.0997 317.587 28.4231 316.949 27.7847L312.706 32.0273C314.444 33.7649 316.851 34.8163 319.572 35.4255L320.883 29.5705ZM317.012 27.8499C316.512 27.3186 316.1 26.4539 316.1 24.884H310.1C310.1 27.5621 310.839 30.0454 312.643 31.9621L317.012 27.8499ZM316.1 24.884C316.1 23.7055 316.396 22.8385 316.891 22.1457L312.008 18.6583C310.703 20.4855 310.1 22.6065 310.1 24.884H316.1ZM316.858 22.191C317.438 21.4093 318.24 20.7769 319.365 20.3166L317.094 14.7634C315.051 15.5991 313.333 16.8747 312.041 18.613L316.858 22.191ZM319.419 20.2942C320.563 19.8 321.964 19.514 323.684 19.514V13.514C321.299 13.514 319.064 13.912 317.04 14.7858L319.419 20.2942ZM323.684 19.514C325.298 19.514 326.59 19.8063 327.632 20.3026L330.211 14.8854C328.229 13.9417 326.029 13.514 323.684 13.514V19.514ZM327.632 20.3026C328.684 20.8034 329.404 21.4522 329.903 22.2332L334.96 19.0028C333.803 17.1918 332.184 15.8246 330.211 14.8854L327.632 20.3026ZM329.935 22.2821C330.449 23.0519 330.757 23.9946 330.782 25.2165L336.781 25.0915C336.734 22.8574 336.143 20.7761 334.928 18.9539L329.935 22.2821ZM333.782 22.154H327.518V28.154H333.782V22.154ZM330.518 25.154C330.518 23.3273 329.916 21.5489 328.444 20.2241L324.431 24.6839C324.449 24.7003 324.453 24.7055 324.462 24.7292C324.476 24.7648 324.518 24.8892 324.518 25.154H330.518ZM328.504 20.279C327.072 18.9192 325.236 18.428 323.414 18.428V24.428C324.183 24.428 324.363 24.6208 324.371 24.629L328.504 20.279ZM323.414 18.428C321.708 18.428 319.946 18.8047 318.515 19.9494L322.264 24.6346C322.273 24.6273 322.527 24.428 323.414 24.428V18.428ZM318.515 19.9494C317.04 21.1294 316.31 22.7876 316.31 24.614H322.31C322.31 24.5564 322.315 24.5299 322.315 24.5279C322.315 24.5268 322.315 24.5307 322.312 24.5387C322.309 24.5467 322.305 24.5573 322.3 24.5697C322.294 24.5821 322.287 24.5945 322.28 24.6064C322.272 24.6183 322.265 24.6279 322.26 24.6352C322.247 24.6505 322.245 24.6494 322.264 24.6346L318.515 19.9494ZM316.31 24.614C316.31 26.253 316.999 27.6852 318.198 28.7347C319.291 29.6915 320.688 30.2324 322.081 30.5588L323.45 24.7172C323.016 24.6155 322.701 24.5063 322.48 24.4074C322.258 24.3081 322.167 24.2348 322.149 24.2193C322.139 24.2106 322.195 24.2586 322.247 24.3711C322.301 24.4863 322.31 24.5816 322.31 24.614H316.31ZM322.077 30.5578L326.883 31.6918L328.26 25.8522L323.454 24.7182L322.077 30.5578ZM326.911 31.6983C328.825 32.1305 329.899 32.7502 330.472 33.3233L334.715 29.0807C333.056 27.4218 330.782 26.4215 328.232 25.8457L326.911 31.6983ZM330.506 33.3567C330.923 33.7605 331.322 34.4752 331.322 35.954H337.322C337.322 33.3288 336.568 30.8755 334.681 29.0473L330.506 33.3567ZM331.322 35.954C331.322 37.2049 331.007 38.1534 330.463 38.9272L335.372 42.3768C336.7 40.4866 337.322 38.3031 337.322 35.954H331.322ZM330.486 38.8955C329.915 39.6854 329.067 40.3767 327.801 40.9155L330.15 46.4365C332.268 45.5353 334.048 44.2106 335.35 42.4085L330.486 38.8955ZM327.851 40.8947C326.581 41.4081 325.031 41.702 323.144 41.702V47.702C325.648 47.702 327.986 47.3119 330.1 46.4573L327.851 40.8947ZM323.144 41.702C320.317 41.702 318.408 41.0164 317.105 39.9501L313.306 44.5939C315.963 46.7676 319.346 47.702 323.144 47.702V41.702ZM317.126 39.9673C315.896 38.9421 315.29 37.6771 315.29 35.9H309.29C309.29 39.3789 310.627 42.3619 313.285 44.5767L317.126 39.9673Z" fill="url(#paint0_linear_70_50928)"/>
</g>
<defs>
<filter id="filter0_diii_70_50928" x="0.105957" y="0.824219" width="341.216" height="54.8779" filterUnits="userSpaceOnUse" color-interpolation-filters="sRGB">
<feFlood flood-opacity="0" result="BackgroundImageFix"/>
<feColorMatrix in="SourceAlpha" type="matrix" values="0 0 0 0 0 0 0 0 0 0 0 0 0 0 0 0 0 0 127 0" result="hardAlpha"/>
<feOffset dy="4"/>
<feGaussianBlur stdDeviation="3.5"/>
<feComposite in2="hardAlpha" operator="out"/>
<feColorMatrix type="matrix" values="0 0 0 0 0.0196078 0 0 0 0 0.0196078 0 0 0 0 0.00784314 0 0 0 1 0"/>
<feBlend mode="normal" in2="BackgroundImageFix" result="effect1_dropShadow_70_50928"/>
<feBlend mode="normal" in="SourceGraphic" in2="effect1_dropShadow_70_50928" result="shape"/>
<feColorMatrix in="SourceAlpha" type="matrix" values="0 0 0 0 0 0 0 0 0 0 0 0 0 0 0 0 0 0 127 0" result="hardAlpha"/>
<feOffset dx="4" dy="-1"/>
<feGaussianBlur stdDeviation="2.5"/>
<feComposite in2="hardAlpha" operator="arithmetic" k2="-1" k3="1"/>
<feColorMatrix type="matrix" values="0 0 0 0 0.639216 0 0 0 0 0.639216 0 0 0 0 0.639216 0 0 0 1 0"/>
<feBlend mode="normal" in2="shape" result="effect2_innerShadow_70_50928"/>
<feColorMatrix in="SourceAlpha" type="matrix" values="0 0 0 0 0 0 0 0 0 0 0 0 0 0 0 0 0 0 127 0" result="hardAlpha"/>
<feOffset dx="5" dy="-2"/>
<feGaussianBlur stdDeviation="7.5"/>
<feComposite in2="hardAlpha" operator="arithmetic" k2="-1" k3="1"/>
<feColorMatrix type="matrix" values="0 0 0 0 0.196078 0 0 0 0 0.196078 0 0 0 0 0.2 0 0 0 1 0"/>
<feBlend mode="normal" in2="effect2_innerShadow_70_50928" result="effect3_innerShadow_70_50928"/>
<feColorMatrix in="SourceAlpha" type="matrix" values="0 0 0 0 0 0 0 0 0 0 0 0 0 0 0 0 0 0 127 0" result="hardAlpha"/>
<feOffset dy="4"/>
<feGaussianBlur stdDeviation="2.5"/>
<feComposite in2="hardAlpha" operator="arithmetic" k2="-1" k3="1"/>
<feColorMatrix type="matrix" values="0 0 0 0 0.545098 0 0 0 0 0.545098 0 0 0 0 0.545098 0 0 0 1 0"/>
<feBlend mode="normal" in2="effect3_innerShadow_70_50928" result="effect4_innerShadow_70_50928"/>
</filter>
<linearGradient id="paint0_linear_70_50928" x1="352.55" y1="-23.95" x2="321.84" y2="138.248" gradientUnits="userSpaceOnUse">
<stop offset="0.0925283" stop-color="#FF1919"/>
<stop offset="0.939056" stop-color="#36FF32" stop-opacity="0"/>
</linearGradient>
</defs>
</svg>
