<svg width="25" height="24" viewBox="0 0 25 24" fill="none" xmlns="http://www.w3.org/2000/svg">
<path d="M2.8999 12C2.8999 14.5461 3.91133 16.9879 5.71168 18.7882C7.51203 20.5886 9.95382 21.6 12.4999 21.6C15.046 21.6 17.4878 20.5886 19.2881 18.7882C21.0885 16.9879 22.0999 14.5461 22.0999 12C22.0999 9.45395 21.0885 7.01215 19.2881 5.2118C17.4878 3.41145 15.046 2.40002 12.4999 2.40002C9.95382 2.40002 7.51203 3.41145 5.71168 5.2118C3.91133 7.01215 2.8999 9.45395 2.8999 12Z" fill="#D9EDFF"/>
<path d="M9.457 9.24627C9.49359 9.22388 9.53551 9.2117 9.5784 9.211C9.62129 9.21031 9.66359 9.22112 9.70089 9.24232C9.73818 9.26351 9.76911 9.29432 9.79046 9.33152C9.81181 9.36873 9.8228 9.41098 9.82228 9.45388C9.79422 10.187 10.015 10.9081 10.4487 11.4999C10.4846 11.5474 10.537 11.5796 10.5956 11.5904C10.6542 11.6011 10.7146 11.5894 10.765 11.5577C11.1528 11.3156 12.0512 10.5552 12.5 8.5354C12.7381 7.5194 12.7772 6.46688 12.6149 5.43604C12.6071 5.39114 12.6123 5.34495 12.63 5.30293C12.6476 5.26091 12.6769 5.22481 12.7144 5.19891C12.7518 5.173 12.796 5.15838 12.8415 5.15677C12.887 5.15515 12.9321 5.16661 12.9713 5.1898C14.4226 6.05311 15.6271 7.27557 16.4688 8.73943C17.3106 10.2033 17.7612 11.8593 17.7773 13.5478C17.8457 16.5437 15.4793 19.1062 12.4827 19.0966C11.0853 19.0921 9.74658 18.5339 8.76001 17.5442C7.77345 16.5545 7.21948 15.214 7.21948 13.8166C7.21996 11.6436 8.20252 10.0611 9.457 9.24627Z" fill="#B0D9FF" stroke="#020064" stroke-width="0.24"/>
<path d="M14.1602 12.84C14.1214 12.8236 14.0789 12.8177 14.037 12.8229C13.9952 12.8281 13.9554 12.8442 13.9218 12.8697C13.8882 12.8951 13.8618 12.929 13.8455 12.9679C13.8291 13.0067 13.8232 13.0492 13.8285 13.0911C13.8554 13.2722 13.8657 13.4553 13.8592 13.6383C13.8177 14.8347 13.0711 15.5657 12.2335 15.5367C11.9826 15.5316 11.7383 15.4549 11.5296 15.3156C11.3208 15.1763 11.1563 14.9802 11.0553 14.7504C11.0343 14.7033 10.9987 14.6642 10.9538 14.6389C10.9088 14.6136 10.8569 14.6034 10.8057 14.6099C10.7545 14.6164 10.7068 14.6393 10.6697 14.6751C10.6325 14.7108 10.6078 14.7576 10.5993 14.8085C10.5319 15.1693 10.5405 15.5403 10.6245 15.8976C10.7086 16.2549 10.8662 16.5908 11.0873 16.8837C11.3085 17.1767 11.5883 17.4203 11.9089 17.5991C12.2295 17.7778 12.5839 17.8877 12.9493 17.9218C13.3148 17.9559 13.6834 17.9134 14.0315 17.797C14.3796 17.6806 14.6997 17.4929 14.9712 17.2459C15.2427 16.9988 15.4597 16.6979 15.6083 16.3623C15.7569 16.0267 15.834 15.6637 15.8344 15.2967C15.8344 14.7664 15.6746 14.2485 15.376 13.8103C15.0774 13.3721 14.6537 13.034 14.1602 12.84Z" fill="#F3F3F3" fill-opacity="0.952941" stroke="#020064" stroke-width="0.24"/>
</svg>
