<svg width="207" height="30" viewBox="0 0 207 30" fill="none" xmlns="http://www.w3.org/2000/svg">
<path d="M2.11188 16.536V14.072C3.19988 14.072 3.96788 13.848 4.41588 13.4C4.88521 12.952 5.11988 12.3333 5.11988 11.544V4.632C5.11988 3.608 5.43988 2.78667 6.07988 2.168C6.74121 1.528 7.62654 1.208 8.73588 1.208H10.6879V3.608H9.18388C8.77854 3.608 8.44788 3.736 8.19188 3.992C7.95721 4.248 7.83988 4.6 7.83988 5.048V11.832C7.83988 12.7493 7.64788 13.496 7.26388 14.072C6.90121 14.6267 6.30388 15.032 5.47188 15.288C6.30388 15.5653 6.90121 15.992 7.26388 16.568C7.64788 17.1227 7.83988 17.8587 7.83988 18.776V25.56C7.83988 26.008 7.95721 26.3707 8.19188 26.648C8.44788 26.904 8.77854 27.032 9.18388 27.032H10.6879V29.4H8.73588C7.62654 29.4 6.74121 29.0907 6.07988 28.472C5.43988 27.8533 5.11988 27.032 5.11988 26.008V19.064C5.11988 18.296 4.88521 17.688 4.41588 17.24C3.96788 16.7707 3.19988 16.536 2.11188 16.536ZM35.2846 29.4H33.3006V27.032H34.8046C35.2313 27.032 35.562 26.904 35.7966 26.648C36.0313 26.3707 36.1486 26.008 36.1486 25.56V18.776C36.1486 17.8587 36.3406 17.1227 36.7246 16.568C37.1086 15.992 37.7166 15.5653 38.5486 15.288C37.7166 15.032 37.1086 14.6267 36.7246 14.072C36.3406 13.496 36.1486 12.7493 36.1486 11.832V5.048C36.1486 4.6 36.0313 4.248 35.7966 3.992C35.562 3.736 35.2313 3.608 34.8046 3.608H33.3006V1.208H35.2846C36.3726 1.208 37.2473 1.528 37.9086 2.168C38.57 2.78667 38.9006 3.608 38.9006 4.632V11.544C38.9006 12.3333 39.1246 12.952 39.5726 13.4C40.042 13.848 40.81 14.072 41.8766 14.072V16.536C40.81 16.536 40.042 16.7707 39.5726 17.24C39.1246 17.688 38.9006 18.296 38.9006 19.064V26.008C38.9006 27.032 38.57 27.8533 37.9086 28.472C37.2473 29.0907 36.3726 29.4 35.2846 29.4Z" fill="#F3F3F3" fill-opacity="0.952941"/>
<path d="M21.7394 3.864L17.1954 27H14.2194L18.7634 3.864H21.7394ZM29.6434 3.864L25.0994 27H22.1234L26.6354 3.864H29.6434ZM13.8034 10.296H31.6914L31.1474 13.112H13.2274L13.8034 10.296ZM12.8434 17.752H30.5074L29.9634 20.568H12.2674L12.8434 17.752Z" fill="#0FFF50"/>
<path d="M64.3359 16.6836L67.6992 17.75C67.1836 19.625 66.3242 21.0195 65.1211 21.9336C63.9258 22.8398 62.4062 23.293 60.5625 23.293C58.2812 23.293 56.4062 22.5156 54.9375 20.9609C53.4688 19.3984 52.7344 17.2656 52.7344 14.5625C52.7344 11.7031 53.4727 9.48438 54.9492 7.90625C56.4258 6.32031 58.3672 5.52734 60.7734 5.52734C62.875 5.52734 64.582 6.14844 65.8945 7.39062C66.6758 8.125 67.2617 9.17969 67.6523 10.5547L64.2188 11.375C64.0156 10.4844 63.5898 9.78125 62.9414 9.26562C62.3008 8.75 61.5195 8.49219 60.5977 8.49219C59.3242 8.49219 58.2891 8.94922 57.4922 9.86328C56.7031 10.7773 56.3086 12.2578 56.3086 14.3047C56.3086 16.4766 56.6992 18.0234 57.4805 18.9453C58.2617 19.8672 59.2773 20.3281 60.5273 20.3281C61.4492 20.3281 62.2422 20.0352 62.9062 19.4492C63.5703 18.8633 64.0469 17.9414 64.3359 16.6836ZM69.9023 16.6016C69.9023 15.5078 70.1719 14.4492 70.7109 13.4258C71.25 12.4023 72.0117 11.6211 72.9961 11.082C73.9883 10.543 75.0938 10.2734 76.3125 10.2734C78.1953 10.2734 79.7383 10.8867 80.9414 12.1133C82.1445 13.332 82.7461 14.875 82.7461 16.7422C82.7461 18.625 82.1367 20.1875 80.918 21.4297C79.707 22.6641 78.1797 23.2812 76.3359 23.2812C75.1953 23.2812 74.1055 23.0234 73.0664 22.5078C72.0352 21.9922 71.25 21.2383 70.7109 20.2461C70.1719 19.2461 69.9023 18.0312 69.9023 16.6016ZM73.2773 16.7773C73.2773 18.0117 73.5703 18.957 74.1562 19.6133C74.7422 20.2695 75.4648 20.5977 76.3242 20.5977C77.1836 20.5977 77.9023 20.2695 78.4805 19.6133C79.0664 18.957 79.3594 18.0039 79.3594 16.7539C79.3594 15.5352 79.0664 14.5977 78.4805 13.9414C77.9023 13.2852 77.1836 12.957 76.3242 12.957C75.4648 12.957 74.7422 13.2852 74.1562 13.9414C73.5703 14.5977 73.2773 15.543 73.2773 16.7773ZM96.75 23H93.6914V21.1719C93.1836 21.8828 92.582 22.4141 91.8867 22.7656C91.1992 23.1094 90.5039 23.2812 89.8008 23.2812C88.3711 23.2812 87.1445 22.707 86.1211 21.5586C85.1055 20.4023 84.5977 18.793 84.5977 16.7305C84.5977 14.6211 85.0938 13.0195 86.0859 11.9258C87.0781 10.8242 88.332 10.2734 89.8477 10.2734C91.2383 10.2734 92.4414 10.8516 93.457 12.0078V5.82031H96.75V23ZM87.9609 16.5078C87.9609 17.8359 88.1445 18.7969 88.5117 19.3906C89.043 20.25 89.7852 20.6797 90.7383 20.6797C91.4961 20.6797 92.1406 20.3594 92.6719 19.7188C93.2031 19.0703 93.4688 18.1055 93.4688 16.8242C93.4688 15.3945 93.2109 14.3672 92.6953 13.7422C92.1797 13.1094 91.5195 12.793 90.7148 12.793C89.9336 12.793 89.2773 13.1055 88.7461 13.7305C88.2227 14.3477 87.9609 15.2734 87.9609 16.5078ZM107.215 19.0391L110.496 19.5898C110.074 20.793 109.406 21.7109 108.492 22.3438C107.586 22.9688 106.449 23.2812 105.082 23.2812C102.918 23.2812 101.316 22.5742 100.277 21.1602C99.457 20.0273 99.0469 18.5977 99.0469 16.8711C99.0469 14.8086 99.5859 13.1953 100.664 12.0312C101.742 10.8594 103.105 10.2734 104.754 10.2734C106.605 10.2734 108.066 10.8867 109.137 12.1133C110.207 13.332 110.719 15.2031 110.672 17.7266H102.422C102.445 18.7031 102.711 19.4648 103.219 20.0117C103.727 20.5508 104.359 20.8203 105.117 20.8203C105.633 20.8203 106.066 20.6797 106.418 20.3984C106.77 20.1172 107.035 19.6641 107.215 19.0391ZM107.402 15.7109C107.379 14.7578 107.133 14.0352 106.664 13.543C106.195 13.043 105.625 12.793 104.953 12.793C104.234 12.793 103.641 13.0547 103.172 13.5781C102.703 14.1016 102.473 14.8125 102.48 15.7109H107.402ZM113.426 23V5.82031H116.801L123.832 17.293V5.82031H127.055V23H123.574L116.648 11.7969V23H113.426ZM129.949 16.6016C129.949 15.5078 130.219 14.4492 130.758 13.4258C131.297 12.4023 132.059 11.6211 133.043 11.082C134.035 10.543 135.141 10.2734 136.359 10.2734C138.242 10.2734 139.785 10.8867 140.988 12.1133C142.191 13.332 142.793 14.875 142.793 16.7422C142.793 18.625 142.184 20.1875 140.965 21.4297C139.754 22.6641 138.227 23.2812 136.383 23.2812C135.242 23.2812 134.152 23.0234 133.113 22.5078C132.082 21.9922 131.297 21.2383 130.758 20.2461C130.219 19.2461 129.949 18.0312 129.949 16.6016ZM133.324 16.7773C133.324 18.0117 133.617 18.957 134.203 19.6133C134.789 20.2695 135.512 20.5977 136.371 20.5977C137.23 20.5977 137.949 20.2695 138.527 19.6133C139.113 18.957 139.406 18.0039 139.406 16.7539C139.406 15.5352 139.113 14.5977 138.527 13.9414C137.949 13.2852 137.23 12.957 136.371 12.957C135.512 12.957 134.789 13.2852 134.203 13.9414C133.617 14.5977 133.324 15.543 133.324 16.7773ZM145.137 10.5547H148.172V12.2539C149.258 10.9336 150.551 10.2734 152.051 10.2734C152.848 10.2734 153.539 10.4375 154.125 10.7656C154.711 11.0938 155.191 11.5898 155.566 12.2539C156.113 11.5898 156.703 11.0938 157.336 10.7656C157.969 10.4375 158.645 10.2734 159.363 10.2734C160.277 10.2734 161.051 10.4609 161.684 10.8359C162.316 11.2031 162.789 11.7461 163.102 12.4648C163.328 12.9961 163.441 13.8555 163.441 15.043V23H160.148V15.8867C160.148 14.6523 160.035 13.8555 159.809 13.4961C159.504 13.0273 159.035 12.793 158.402 12.793C157.941 12.793 157.508 12.9336 157.102 13.2148C156.695 13.4961 156.402 13.9102 156.223 14.457C156.043 14.9961 155.953 15.8516 155.953 17.0234V23H152.66V16.1797C152.66 14.9688 152.602 14.1875 152.484 13.8359C152.367 13.4844 152.184 13.2227 151.934 13.0508C151.691 12.8789 151.359 12.793 150.938 12.793C150.43 12.793 149.973 12.9297 149.566 13.2031C149.16 13.4766 148.867 13.8711 148.688 14.3867C148.516 14.9023 148.43 15.7578 148.43 16.9531V23H145.137V10.5547ZM169.195 14.3516L166.207 13.8125C166.543 12.6094 167.121 11.7188 167.941 11.1406C168.762 10.5625 169.98 10.2734 171.598 10.2734C173.066 10.2734 174.16 10.4492 174.879 10.8008C175.598 11.1445 176.102 11.5859 176.391 12.125C176.688 12.6562 176.836 13.6367 176.836 15.0664L176.801 18.9102C176.801 20.0039 176.852 20.8125 176.953 21.3359C177.062 21.8516 177.262 22.4062 177.551 23H174.293C174.207 22.7812 174.102 22.457 173.977 22.0273C173.922 21.832 173.883 21.7031 173.859 21.6406C173.297 22.1875 172.695 22.5977 172.055 22.8711C171.414 23.1445 170.73 23.2812 170.004 23.2812C168.723 23.2812 167.711 22.9336 166.969 22.2383C166.234 21.543 165.867 20.6641 165.867 19.6016C165.867 18.8984 166.035 18.2734 166.371 17.7266C166.707 17.1719 167.176 16.75 167.777 16.4609C168.387 16.1641 169.262 15.9062 170.402 15.6875C171.941 15.3984 173.008 15.1289 173.602 14.8789V14.5508C173.602 13.918 173.445 13.4688 173.133 13.2031C172.82 12.9297 172.23 12.793 171.363 12.793C170.777 12.793 170.32 12.9102 169.992 13.1445C169.664 13.3711 169.398 13.7734 169.195 14.3516ZM173.602 17.0234C173.18 17.1641 172.512 17.332 171.598 17.5273C170.684 17.7227 170.086 17.9141 169.805 18.1016C169.375 18.4062 169.16 18.793 169.16 19.2617C169.16 19.7227 169.332 20.1211 169.676 20.457C170.02 20.793 170.457 20.9609 170.988 20.9609C171.582 20.9609 172.148 20.7656 172.688 20.375C173.086 20.0781 173.348 19.7148 173.473 19.2852C173.559 19.0039 173.602 18.4688 173.602 17.6797V17.0234ZM191.508 23H188.449V21.1719C187.941 21.8828 187.34 22.4141 186.645 22.7656C185.957 23.1094 185.262 23.2812 184.559 23.2812C183.129 23.2812 181.902 22.707 180.879 21.5586C179.863 20.4023 179.355 18.793 179.355 16.7305C179.355 14.6211 179.852 13.0195 180.844 11.9258C181.836 10.8242 183.09 10.2734 184.605 10.2734C185.996 10.2734 187.199 10.8516 188.215 12.0078V5.82031H191.508V23ZM182.719 16.5078C182.719 17.8359 182.902 18.7969 183.27 19.3906C183.801 20.25 184.543 20.6797 185.496 20.6797C186.254 20.6797 186.898 20.3594 187.43 19.7188C187.961 19.0703 188.227 18.1055 188.227 16.8242C188.227 15.3945 187.969 14.3672 187.453 13.7422C186.938 13.1094 186.277 12.793 185.473 12.793C184.691 12.793 184.035 13.1055 183.504 13.7305C182.98 14.3477 182.719 15.2734 182.719 16.5078ZM193.605 19.4492L196.91 18.9453C197.051 19.5859 197.336 20.0742 197.766 20.4102C198.195 20.7383 198.797 20.9023 199.57 20.9023C200.422 20.9023 201.062 20.7461 201.492 20.4336C201.781 20.2148 201.926 19.9219 201.926 19.5547C201.926 19.3047 201.848 19.0977 201.691 18.9336C201.527 18.7773 201.16 18.6328 200.59 18.5C197.934 17.9141 196.25 17.3789 195.539 16.8945C194.555 16.2227 194.062 15.2891 194.062 14.0938C194.062 13.0156 194.488 12.1094 195.34 11.375C196.191 10.6406 197.512 10.2734 199.301 10.2734C201.004 10.2734 202.27 10.5508 203.098 11.1055C203.926 11.6602 204.496 12.4805 204.809 13.5664L201.703 14.1406C201.57 13.6562 201.316 13.2852 200.941 13.0273C200.574 12.7695 200.047 12.6406 199.359 12.6406C198.492 12.6406 197.871 12.7617 197.496 13.0039C197.246 13.1758 197.121 13.3984 197.121 13.6719C197.121 13.9062 197.23 14.1055 197.449 14.2695C197.746 14.4883 198.77 14.7969 200.52 15.1953C202.277 15.5938 203.504 16.082 204.199 16.6602C204.887 17.2461 205.23 18.0625 205.23 19.1094C205.23 20.25 204.754 21.2305 203.801 22.0508C202.848 22.8711 201.438 23.2812 199.57 23.2812C197.875 23.2812 196.531 22.9375 195.539 22.25C194.555 21.5625 193.91 20.6289 193.605 19.4492Z" fill="#F3F3F3"/>
</svg>
