<svg width="20" height="20" viewBox="0 0 20 20" fill="none" xmlns="http://www.w3.org/2000/svg">
<path d="M3.64317 6.0535C3.65338 5.95205 3.63971 5.84962 3.60324 5.75441C3.56678 5.65919 3.50853 5.57384 3.43317 5.50516L1.8765 3.616V3.3335H6.70817L10.4432 11.5877L13.7265 3.3335H18.3332V3.616L17.0023 4.90016C16.9459 4.9437 16.9024 5.00174 16.8765 5.06808C16.8505 5.13442 16.843 5.20657 16.8548 5.27683V14.7218C16.843 14.7921 16.8505 14.8642 16.8765 14.9306C16.9024 14.9969 16.9459 15.055 17.0023 15.0985L18.3023 16.3835V16.6668H11.7665V16.3843L13.1123 15.0677C13.2448 14.9343 13.2448 14.8952 13.2448 14.6918V7.05683L9.5015 16.6352H8.9965L4.63817 7.05683V13.4768C4.60234 13.7468 4.6915 14.0185 4.87984 14.2135L6.63067 16.3535V16.6352H1.6665V16.3535L3.4165 14.2135C3.5091 14.1169 3.57782 13.9999 3.61717 13.872C3.65653 13.7441 3.66543 13.6088 3.64317 13.4768V6.0535Z" fill="#F3F3F3" fill-opacity="0.952941"/>
</svg>
