<svg width="140" height="30" viewBox="0 0 140 30" fill="none" xmlns="http://www.w3.org/2000/svg">
<path d="M1.56992 16.46V14.92C2.24992 14.92 2.72992 14.78 3.00992 14.5C3.30326 14.22 3.44992 13.8333 3.44992 13.34V9.02C3.44992 8.38 3.64992 7.86667 4.04992 7.48C4.46326 7.08 5.01659 6.88 5.70992 6.88H6.92992V8.38H5.98992C5.73659 8.38 5.52992 8.46 5.36992 8.62C5.22326 8.78 5.14992 9 5.14992 9.28V13.52C5.14992 14.0933 5.02992 14.56 4.78992 14.92C4.56326 15.2667 4.18992 15.52 3.66992 15.68C4.18992 15.8533 4.56326 16.12 4.78992 16.48C5.02992 16.8267 5.14992 17.2867 5.14992 17.86V22.1C5.14992 22.38 5.22326 22.6067 5.36992 22.78C5.52992 22.94 5.73659 23.02 5.98992 23.02H6.92992V24.5H5.70992C5.01659 24.5 4.46326 24.3067 4.04992 23.92C3.64992 23.5333 3.44992 23.02 3.44992 22.38V18.04C3.44992 17.56 3.30326 17.18 3.00992 16.9C2.72992 16.6067 2.24992 16.46 1.56992 16.46ZM22.3029 24.5H21.0629V23.02H22.0029C22.2696 23.02 22.4762 22.94 22.6229 22.78C22.7696 22.6067 22.8429 22.38 22.8429 22.1V17.86C22.8429 17.2867 22.9629 16.8267 23.2029 16.48C23.4429 16.12 23.8229 15.8533 24.3429 15.68C23.8229 15.52 23.4429 15.2667 23.2029 14.92C22.9629 14.56 22.8429 14.0933 22.8429 13.52V9.28C22.8429 9 22.7696 8.78 22.6229 8.62C22.4762 8.46 22.2696 8.38 22.0029 8.38H21.0629V6.88H22.3029C22.9829 6.88 23.5296 7.08 23.9429 7.48C24.3562 7.86667 24.5629 8.38 24.5629 9.02V13.34C24.5629 13.8333 24.7029 14.22 24.9829 14.5C25.2762 14.78 25.7562 14.92 26.4229 14.92V16.46C25.7562 16.46 25.2762 16.6067 24.9829 16.9C24.7029 17.18 24.5629 17.56 24.5629 18.04V22.38C24.5629 23.02 24.3562 23.5333 23.9429 23.92C23.5296 24.3067 22.9829 24.5 22.3029 24.5Z" fill="white"/>
<path d="M13.8371 8.54L10.9971 23H9.13711L11.9771 8.54H13.8371ZM18.7771 8.54L15.9371 23H14.0771L16.8971 8.54H18.7771ZM8.87711 12.56H20.0571L19.7171 14.32H8.51711L8.87711 12.56ZM8.27711 17.22H19.3171L18.9771 18.98H7.91711L8.27711 17.22Z" fill="#0FFF50"/>
<path d="M44.3906 16.7891L46.6328 17.5C46.2891 18.75 45.7161 19.6797 44.9141 20.2891C44.1172 20.8932 43.1042 21.1953 41.875 21.1953C40.3542 21.1953 39.1042 20.6771 38.125 19.6406C37.1458 18.599 36.6562 17.1771 36.6562 15.375C36.6562 13.4688 37.1484 11.9896 38.1328 10.9375C39.1172 9.88021 40.4115 9.35156 42.0156 9.35156C43.4167 9.35156 44.5547 9.76562 45.4297 10.5938C45.9505 11.0833 46.3411 11.7865 46.6016 12.7031L44.3125 13.25C44.1771 12.6562 43.8932 12.1875 43.4609 11.8438C43.0339 11.5 42.513 11.3281 41.8984 11.3281C41.0495 11.3281 40.3594 11.6328 39.8281 12.2422C39.3021 12.8516 39.0391 13.8385 39.0391 15.2031C39.0391 16.651 39.2995 17.6823 39.8203 18.2969C40.3411 18.9115 41.0182 19.2188 41.8516 19.2188C42.4661 19.2188 42.9948 19.0234 43.4375 18.6328C43.8802 18.2422 44.1979 17.6276 44.3906 16.7891ZM48.1016 16.7344C48.1016 16.0052 48.2812 15.2995 48.6406 14.6172C49 13.9349 49.5078 13.4141 50.1641 13.0547C50.8255 12.6953 51.5625 12.5156 52.375 12.5156C53.6302 12.5156 54.6589 12.9245 55.4609 13.7422C56.263 14.5547 56.6641 15.5833 56.6641 16.8281C56.6641 18.0833 56.2578 19.125 55.4453 19.9531C54.638 20.776 53.6198 21.1875 52.3906 21.1875C51.6302 21.1875 50.9036 21.0156 50.2109 20.6719C49.5234 20.3281 49 19.8255 48.6406 19.1641C48.2812 18.4974 48.1016 17.6875 48.1016 16.7344ZM50.3516 16.8516C50.3516 17.6745 50.5469 18.3047 50.9375 18.7422C51.3281 19.1797 51.8099 19.3984 52.3828 19.3984C52.9557 19.3984 53.4349 19.1797 53.8203 18.7422C54.2109 18.3047 54.4062 17.6693 54.4062 16.8359C54.4062 16.0234 54.2109 15.3984 53.8203 14.9609C53.4349 14.5234 52.9557 14.3047 52.3828 14.3047C51.8099 14.3047 51.3281 14.5234 50.9375 14.9609C50.5469 15.3984 50.3516 16.0286 50.3516 16.8516ZM66 21H63.9609V19.7812C63.6224 20.2552 63.2214 20.6094 62.7578 20.8438C62.2995 21.0729 61.8359 21.1875 61.3672 21.1875C60.4141 21.1875 59.5964 20.8047 58.9141 20.0391C58.237 19.2682 57.8984 18.1953 57.8984 16.8203C57.8984 15.4141 58.2292 14.3464 58.8906 13.6172C59.5521 12.8828 60.388 12.5156 61.3984 12.5156C62.3255 12.5156 63.1276 12.901 63.8047 13.6719V9.54688H66V21ZM60.1406 16.6719C60.1406 17.5573 60.263 18.1979 60.5078 18.5938C60.862 19.1667 61.3568 19.4531 61.9922 19.4531C62.4974 19.4531 62.9271 19.2396 63.2812 18.8125C63.6354 18.3802 63.8125 17.737 63.8125 16.8828C63.8125 15.9297 63.6406 15.2448 63.2969 14.8281C62.9531 14.4062 62.513 14.1953 61.9766 14.1953C61.4557 14.1953 61.0182 14.4036 60.6641 14.8203C60.3151 15.2318 60.1406 15.849 60.1406 16.6719ZM72.9766 18.3594L75.1641 18.7266C74.8828 19.5286 74.4375 20.1406 73.8281 20.5625C73.224 20.9792 72.4661 21.1875 71.5547 21.1875C70.112 21.1875 69.0443 20.7161 68.3516 19.7734C67.8047 19.0182 67.5312 18.0651 67.5312 16.9141C67.5312 15.5391 67.8906 14.4635 68.6094 13.6875C69.3281 12.9062 70.237 12.5156 71.3359 12.5156C72.5703 12.5156 73.5443 12.9245 74.2578 13.7422C74.9714 14.5547 75.3125 15.8021 75.2812 17.4844H69.7812C69.7969 18.1354 69.974 18.6432 70.3125 19.0078C70.651 19.3672 71.0729 19.5469 71.5781 19.5469C71.9219 19.5469 72.2109 19.4531 72.4453 19.2656C72.6797 19.0781 72.8568 18.776 72.9766 18.3594ZM73.1016 16.1406C73.0859 15.5052 72.9219 15.0234 72.6094 14.6953C72.2969 14.362 71.9167 14.1953 71.4688 14.1953C70.9896 14.1953 70.5938 14.3698 70.2812 14.7188C69.9688 15.0677 69.8151 15.5417 69.8203 16.1406H73.1016ZM77.1172 21V9.54688H79.3672L84.0547 17.1953V9.54688H86.2031V21H83.8828L79.2656 13.5312V21H77.1172ZM88.1328 16.7344C88.1328 16.0052 88.3125 15.2995 88.6719 14.6172C89.0312 13.9349 89.5391 13.4141 90.1953 13.0547C90.8568 12.6953 91.5938 12.5156 92.4062 12.5156C93.6615 12.5156 94.6901 12.9245 95.4922 13.7422C96.2943 14.5547 96.6953 15.5833 96.6953 16.8281C96.6953 18.0833 96.2891 19.125 95.4766 19.9531C94.6693 20.776 93.651 21.1875 92.4219 21.1875C91.6615 21.1875 90.9349 21.0156 90.2422 20.6719C89.5547 20.3281 89.0312 19.8255 88.6719 19.1641C88.3125 18.4974 88.1328 17.6875 88.1328 16.7344ZM90.3828 16.8516C90.3828 17.6745 90.5781 18.3047 90.9688 18.7422C91.3594 19.1797 91.8411 19.3984 92.4141 19.3984C92.987 19.3984 93.4661 19.1797 93.8516 18.7422C94.2422 18.3047 94.4375 17.6693 94.4375 16.8359C94.4375 16.0234 94.2422 15.3984 93.8516 14.9609C93.4661 14.5234 92.987 14.3047 92.4141 14.3047C91.8411 14.3047 91.3594 14.5234 90.9688 14.9609C90.5781 15.3984 90.3828 16.0286 90.3828 16.8516ZM98.2578 12.7031H100.281V13.8359C101.005 12.9557 101.867 12.5156 102.867 12.5156C103.398 12.5156 103.859 12.625 104.25 12.8438C104.641 13.0625 104.961 13.3932 105.211 13.8359C105.576 13.3932 105.969 13.0625 106.391 12.8438C106.812 12.625 107.263 12.5156 107.742 12.5156C108.352 12.5156 108.867 12.6406 109.289 12.8906C109.711 13.1354 110.026 13.4974 110.234 13.9766C110.385 14.3307 110.461 14.9036 110.461 15.6953V21H108.266V16.2578C108.266 15.4349 108.19 14.9036 108.039 14.6641C107.836 14.3516 107.523 14.1953 107.102 14.1953C106.794 14.1953 106.505 14.2891 106.234 14.4766C105.964 14.6641 105.768 14.9401 105.648 15.3047C105.529 15.6641 105.469 16.2344 105.469 17.0156V21H103.273V16.4531C103.273 15.6458 103.234 15.125 103.156 14.8906C103.078 14.6562 102.956 14.4818 102.789 14.3672C102.628 14.2526 102.406 14.1953 102.125 14.1953C101.786 14.1953 101.482 14.2865 101.211 14.4688C100.94 14.651 100.745 14.9141 100.625 15.2578C100.51 15.6016 100.453 16.1719 100.453 16.9688V21H98.2578V12.7031ZM114.297 15.2344L112.305 14.875C112.529 14.0729 112.914 13.4792 113.461 13.0938C114.008 12.7083 114.82 12.5156 115.898 12.5156C116.878 12.5156 117.607 12.6328 118.086 12.8672C118.565 13.0964 118.901 13.3906 119.094 13.75C119.292 14.1042 119.391 14.7578 119.391 15.7109L119.367 18.2734C119.367 19.0026 119.401 19.5417 119.469 19.8906C119.542 20.2344 119.674 20.6042 119.867 21H117.695C117.638 20.8542 117.568 20.638 117.484 20.3516C117.448 20.2214 117.422 20.1354 117.406 20.0938C117.031 20.4583 116.63 20.7318 116.203 20.9141C115.776 21.0964 115.32 21.1875 114.836 21.1875C113.982 21.1875 113.307 20.9557 112.812 20.4922C112.323 20.0286 112.078 19.4427 112.078 18.7344C112.078 18.2656 112.19 17.849 112.414 17.4844C112.638 17.1146 112.951 16.8333 113.352 16.6406C113.758 16.4427 114.341 16.2708 115.102 16.125C116.128 15.9323 116.839 15.7526 117.234 15.5859V15.3672C117.234 14.9453 117.13 14.6458 116.922 14.4688C116.714 14.2865 116.32 14.1953 115.742 14.1953C115.352 14.1953 115.047 14.2734 114.828 14.4297C114.609 14.5807 114.432 14.849 114.297 15.2344ZM117.234 17.0156C116.953 17.1094 116.508 17.2214 115.898 17.3516C115.289 17.4818 114.891 17.6094 114.703 17.7344C114.417 17.9375 114.273 18.1953 114.273 18.5078C114.273 18.8151 114.388 19.0807 114.617 19.3047C114.846 19.5286 115.138 19.6406 115.492 19.6406C115.888 19.6406 116.266 19.5104 116.625 19.25C116.891 19.0521 117.065 18.8099 117.148 18.5234C117.206 18.3359 117.234 17.9792 117.234 17.4531V17.0156ZM129.172 21H127.133V19.7812C126.794 20.2552 126.393 20.6094 125.93 20.8438C125.471 21.0729 125.008 21.1875 124.539 21.1875C123.586 21.1875 122.768 20.8047 122.086 20.0391C121.409 19.2682 121.07 18.1953 121.07 16.8203C121.07 15.4141 121.401 14.3464 122.062 13.6172C122.724 12.8828 123.56 12.5156 124.57 12.5156C125.497 12.5156 126.299 12.901 126.977 13.6719V9.54688H129.172V21ZM123.312 16.6719C123.312 17.5573 123.435 18.1979 123.68 18.5938C124.034 19.1667 124.529 19.4531 125.164 19.4531C125.669 19.4531 126.099 19.2396 126.453 18.8125C126.807 18.3802 126.984 17.737 126.984 16.8828C126.984 15.9297 126.812 15.2448 126.469 14.8281C126.125 14.4062 125.685 14.1953 125.148 14.1953C124.628 14.1953 124.19 14.4036 123.836 14.8203C123.487 15.2318 123.312 15.849 123.312 16.6719ZM130.57 18.6328L132.773 18.2969C132.867 18.724 133.057 19.0495 133.344 19.2734C133.63 19.4922 134.031 19.6016 134.547 19.6016C135.115 19.6016 135.542 19.4974 135.828 19.2891C136.021 19.1432 136.117 18.9479 136.117 18.7031C136.117 18.5365 136.065 18.3984 135.961 18.2891C135.852 18.1849 135.607 18.0885 135.227 18C133.456 17.6094 132.333 17.2526 131.859 16.9297C131.203 16.4818 130.875 15.8594 130.875 15.0625C130.875 14.3438 131.159 13.7396 131.727 13.25C132.294 12.7604 133.174 12.5156 134.367 12.5156C135.503 12.5156 136.346 12.7005 136.898 13.0703C137.451 13.4401 137.831 13.987 138.039 14.7109L135.969 15.0938C135.88 14.7708 135.711 14.5234 135.461 14.3516C135.216 14.1797 134.865 14.0938 134.406 14.0938C133.828 14.0938 133.414 14.1745 133.164 14.3359C132.997 14.4505 132.914 14.599 132.914 14.7812C132.914 14.9375 132.987 15.0703 133.133 15.1797C133.331 15.3255 134.013 15.5312 135.18 15.7969C136.352 16.0625 137.169 16.388 137.633 16.7734C138.091 17.1641 138.32 17.7083 138.32 18.4062C138.32 19.1667 138.003 19.8203 137.367 20.3672C136.732 20.9141 135.792 21.1875 134.547 21.1875C133.417 21.1875 132.521 20.9583 131.859 20.5C131.203 20.0417 130.773 19.4193 130.57 18.6328Z" fill="#0FFF50"/>
</svg>
