<svg width="12" height="12" viewBox="0 0 12 12" fill="none" xmlns="http://www.w3.org/2000/svg">
<path d="M10.4996 10.9978L1.5 10.9978L1.5004 7.5L4.5 6V5L7.5 5V6L10.4996 7.5V10.9978Z" stroke="#0FFF50" stroke-width="0.5" stroke-linejoin="round"/>
<path d="M7 8.5C7 9.0523 6.5523 9.5 6 9.5C5.4477 9.5 5 9.0523 5 8.5C5 7.9477 5.4477 7.5 6 7.5C6.5523 7.5 7 7.9477 7 8.5Z" stroke="#0FFF50"/>
<path d="M8.41663 4H8.04163V4.25549L8.27938 4.34899L8.41663 4ZM10.9595 5L10.8223 5.349C10.9314 5.39185 11.0542 5.3813 11.1543 5.32045C11.2545 5.25955 11.3204 5.1554 11.3325 5.0388L10.9595 5ZM3.58353 4L3.72075 4.34899L3.95853 4.2555V4H3.58353ZM1.04062 4.9999L0.667638 5.0387C0.679768 5.15525 0.745688 5.25945 0.845823 5.32035C0.945953 5.3812 1.06879 5.39175 1.17785 5.3489L1.04062 4.9999ZM10.3867 2.26106C9.87453 1.92733 9.31078 1.65557 8.51293 1.44354L8.32033 2.16839C9.03968 2.35955 9.53033 2.59819 9.97713 2.88936L10.3867 2.26106ZM8.04163 1.80597V4H8.79163V1.80597L8.04163 1.80597ZM8.27938 4.34899L10.8223 5.349L11.0968 4.65102L8.55388 3.65102L8.27938 4.34899ZM11.3325 5.0388C11.4139 4.25656 11.4973 2.98527 10.3867 2.26106L9.97713 2.88936C10.6682 3.33997 10.6724 4.13588 10.5866 4.96119L11.3325 5.0388ZM8.51293 1.44354C7.71088 1.2304 6.85438 1.12469 5.99993 1.125V1.875C6.79383 1.87472 7.58548 1.9731 8.32033 2.16839L8.51293 1.44354ZM2.02301 2.88926C2.46986 2.59808 2.9605 2.35944 3.67984 2.16828L3.48721 1.44344C2.68937 1.65546 2.12573 1.92715 1.61356 2.26089L2.02301 2.88926ZM3.20853 1.80586V4H3.95853V1.80586L3.20853 1.80586ZM3.4463 3.65101L0.903398 4.65091L1.17785 5.3489L3.72075 4.34899L3.4463 3.65101ZM1.41361 4.96108C1.32772 4.13577 1.332 3.33986 2.02301 2.88926L1.61356 2.26089C0.502973 2.9851 0.586228 4.25646 0.667638 5.0387L1.41361 4.96108ZM3.67984 2.16828C4.41468 1.973 5.20598 1.87471 5.99993 1.875V1.125C5.14553 1.12469 4.28931 1.23028 3.48721 1.44344L3.67984 2.16828Z" fill="#0FFF50"/>
</svg>
