<svg width="32" height="32" viewBox="0 0 32 32" fill="none" xmlns="http://www.w3.org/2000/svg">
<path d="M5.03678 15.9233C3.77276 13.7192 3.16242 11.9194 2.79441 10.095C2.25012 7.39686 3.4957 4.76116 5.55913 3.07938C6.43123 2.36859 7.43093 2.61144 7.94662 3.53662L9.11086 5.6253C10.0337 7.28084 10.4951 8.1086 10.4036 8.9862C10.3121 9.8638 9.68978 10.5786 8.44525 12.0081L5.03678 15.9233ZM5.03678 15.9233C7.5953 20.3845 11.6104 24.4018 16.0768 26.9633M16.0768 26.9633C18.2809 28.2273 20.0806 28.8377 21.905 29.2057C24.6032 29.75 27.2389 28.5044 28.9206 26.4409C29.6314 25.5689 29.3886 24.5692 28.4634 24.0534L26.3748 22.8892C24.7192 21.9664 23.8914 21.505 23.0138 21.5965C22.1362 21.688 21.4214 22.3102 19.992 23.5548L16.0768 26.9633Z" stroke="#F3F3F3" stroke-opacity="0.952941" stroke-width="1.5" stroke-linejoin="round"/>
</svg>
