<svg width="181" height="30" viewBox="0 0 181 30" fill="none" xmlns="http://www.w3.org/2000/svg">
<path d="M1.61188 16.536V14.072C2.69988 14.072 3.46788 13.848 3.91588 13.4C4.38521 12.952 4.61988 12.3333 4.61988 11.544V4.632C4.61988 3.608 4.93988 2.78667 5.57988 2.168C6.24121 1.528 7.12654 1.208 8.23588 1.208H10.1879V3.608H8.68388C8.27854 3.608 7.94788 3.736 7.69188 3.992C7.45721 4.248 7.33988 4.6 7.33988 5.048V11.832C7.33988 12.7493 7.14788 13.496 6.76388 14.072C6.40121 14.6267 5.80388 15.032 4.97188 15.288C5.80388 15.5653 6.40121 15.992 6.76388 16.568C7.14788 17.1227 7.33988 17.8587 7.33988 18.776V25.56C7.33988 26.008 7.45721 26.3707 7.69188 26.648C7.94788 26.904 8.27854 27.032 8.68388 27.032H10.1879V29.4H8.23588C7.12654 29.4 6.24121 29.0907 5.57988 28.472C4.93988 27.8533 4.61988 27.032 4.61988 26.008V19.064C4.61988 18.296 4.38521 17.688 3.91588 17.24C3.46788 16.7707 2.69988 16.536 1.61188 16.536ZM34.7846 29.4H32.8006V27.032H34.3046C34.7313 27.032 35.062 26.904 35.2966 26.648C35.5313 26.3707 35.6486 26.008 35.6486 25.56V18.776C35.6486 17.8587 35.8406 17.1227 36.2246 16.568C36.6086 15.992 37.2166 15.5653 38.0486 15.288C37.2166 15.032 36.6086 14.6267 36.2246 14.072C35.8406 13.496 35.6486 12.7493 35.6486 11.832V5.048C35.6486 4.6 35.5313 4.248 35.2966 3.992C35.062 3.736 34.7313 3.608 34.3046 3.608H32.8006V1.208H34.7846C35.8726 1.208 36.7473 1.528 37.4086 2.168C38.07 2.78667 38.4006 3.608 38.4006 4.632V11.544C38.4006 12.3333 38.6246 12.952 39.0726 13.4C39.542 13.848 40.31 14.072 41.3766 14.072V16.536C40.31 16.536 39.542 16.7707 39.0726 17.24C38.6246 17.688 38.4006 18.296 38.4006 19.064V26.008C38.4006 27.032 38.07 27.8533 37.4086 28.472C36.7473 29.0907 35.8726 29.4 34.7846 29.4Z" fill="white"/>
<path d="M21.2394 3.864L16.6954 27H13.7194L18.2634 3.864H21.2394ZM29.1434 3.864L24.5994 27H21.6234L26.1354 3.864H29.1434ZM13.3034 10.296H31.1914L30.6474 13.112H12.7274L13.3034 10.296ZM12.3434 17.752H30.0074L29.4634 20.568H11.7674L12.3434 17.752Z" fill="#0FFF50"/>
<path d="M62.1133 16.7363L64.916 17.625C64.4863 19.1875 63.7702 20.3496 62.7676 21.1113C61.7715 21.8665 60.5052 22.2441 58.9688 22.2441C57.0677 22.2441 55.5052 21.5964 54.2812 20.3008C53.0573 18.9987 52.4453 17.2214 52.4453 14.9688C52.4453 12.5859 53.0605 10.737 54.291 9.42188C55.5215 8.10026 57.1393 7.43945 59.1445 7.43945C60.8958 7.43945 62.3184 7.95703 63.4121 8.99219C64.0632 9.60417 64.5514 10.4831 64.877 11.6289L62.0156 12.3125C61.8464 11.5703 61.4915 10.9844 60.9512 10.5547C60.4173 10.125 59.7663 9.91016 58.998 9.91016C57.9368 9.91016 57.0742 10.291 56.4102 11.0527C55.7526 11.8145 55.4238 13.0482 55.4238 14.7539C55.4238 16.5638 55.7493 17.8529 56.4004 18.6211C57.0514 19.3893 57.8978 19.7734 58.9395 19.7734C59.7077 19.7734 60.3685 19.5293 60.9219 19.041C61.4753 18.5527 61.8724 17.7845 62.1133 16.7363ZM66.752 16.668C66.752 15.7565 66.9766 14.8743 67.4258 14.0215C67.875 13.1686 68.5098 12.5176 69.3301 12.0684C70.1569 11.6191 71.0781 11.3945 72.0938 11.3945C73.6628 11.3945 74.9486 11.9056 75.9512 12.9277C76.9538 13.9434 77.4551 15.2292 77.4551 16.7852C77.4551 18.3542 76.9473 19.6562 75.9316 20.6914C74.9225 21.7201 73.6497 22.2344 72.1133 22.2344C71.1628 22.2344 70.2546 22.0195 69.3887 21.5898C68.5293 21.1602 67.875 20.5319 67.4258 19.7051C66.9766 18.8717 66.752 17.8594 66.752 16.668ZM69.5645 16.8145C69.5645 17.8431 69.8086 18.6309 70.2969 19.1777C70.7852 19.7246 71.3874 19.998 72.1035 19.998C72.8197 19.998 73.4186 19.7246 73.9004 19.1777C74.3887 18.6309 74.6328 17.8366 74.6328 16.7949C74.6328 15.7793 74.3887 14.998 73.9004 14.4512C73.4186 13.9043 72.8197 13.6309 72.1035 13.6309C71.3874 13.6309 70.7852 13.9043 70.2969 14.4512C69.8086 14.998 69.5645 15.7858 69.5645 16.8145ZM89.125 22H86.5762V20.4766C86.153 21.069 85.6517 21.5117 85.0723 21.8047C84.4993 22.0911 83.9199 22.2344 83.334 22.2344C82.1426 22.2344 81.1204 21.7559 80.2676 20.7988C79.4212 19.8353 78.998 18.4941 78.998 16.7754C78.998 15.0176 79.4115 13.6829 80.2383 12.7715C81.0651 11.8535 82.11 11.3945 83.373 11.3945C84.5319 11.3945 85.5345 11.8763 86.3809 12.8398V7.68359H89.125V22ZM81.8008 16.5898C81.8008 17.6966 81.9538 18.4974 82.2598 18.9922C82.7025 19.7083 83.321 20.0664 84.1152 20.0664C84.7467 20.0664 85.2839 19.7995 85.7266 19.2656C86.1693 18.7253 86.3906 17.9212 86.3906 16.8535C86.3906 15.6621 86.1758 14.806 85.7461 14.2852C85.3164 13.7578 84.7663 13.4941 84.0957 13.4941C83.4447 13.4941 82.8978 13.7546 82.4551 14.2754C82.0189 14.7897 81.8008 15.5612 81.8008 16.5898ZM97.8457 18.6992L100.58 19.1582C100.229 20.1608 99.6719 20.9258 98.9102 21.4531C98.1549 21.974 97.2077 22.2344 96.0684 22.2344C94.265 22.2344 92.9303 21.6452 92.0645 20.4668C91.3809 19.5228 91.0391 18.3314 91.0391 16.8926C91.0391 15.1738 91.4883 13.8294 92.3867 12.8594C93.2852 11.8828 94.4212 11.3945 95.7949 11.3945C97.3379 11.3945 98.5553 11.9056 99.4473 12.9277C100.339 13.9434 100.766 15.5026 100.727 17.6055H93.8516C93.8711 18.4193 94.0924 19.054 94.5156 19.5098C94.9388 19.959 95.4661 20.1836 96.0977 20.1836C96.5273 20.1836 96.8887 20.0664 97.1816 19.832C97.4746 19.5977 97.696 19.2201 97.8457 18.6992ZM98.002 15.9258C97.9824 15.1315 97.7773 14.5293 97.3867 14.1191C96.9961 13.7025 96.5208 13.4941 95.9609 13.4941C95.362 13.4941 94.8672 13.7122 94.4766 14.1484C94.0859 14.5846 93.8939 15.1771 93.9004 15.9258H98.002ZM103.021 22V7.68359H105.834L111.693 17.2441V7.68359H114.379V22H111.479L105.707 12.6641V22H103.021ZM116.791 16.668C116.791 15.7565 117.016 14.8743 117.465 14.0215C117.914 13.1686 118.549 12.5176 119.369 12.0684C120.196 11.6191 121.117 11.3945 122.133 11.3945C123.702 11.3945 124.988 11.9056 125.99 12.9277C126.993 13.9434 127.494 15.2292 127.494 16.7852C127.494 18.3542 126.986 19.6562 125.971 20.6914C124.962 21.7201 123.689 22.2344 122.152 22.2344C121.202 22.2344 120.294 22.0195 119.428 21.5898C118.568 21.1602 117.914 20.5319 117.465 19.7051C117.016 18.8717 116.791 17.8594 116.791 16.668ZM119.604 16.8145C119.604 17.8431 119.848 18.6309 120.336 19.1777C120.824 19.7246 121.426 19.998 122.143 19.998C122.859 19.998 123.458 19.7246 123.939 19.1777C124.428 18.6309 124.672 17.8366 124.672 16.7949C124.672 15.7793 124.428 14.998 123.939 14.4512C123.458 13.9043 122.859 13.6309 122.143 13.6309C121.426 13.6309 120.824 13.9043 120.336 14.4512C119.848 14.998 119.604 15.7858 119.604 16.8145ZM129.447 11.6289H131.977V13.0449C132.882 11.9447 133.959 11.3945 135.209 11.3945C135.873 11.3945 136.449 11.5312 136.938 11.8047C137.426 12.0781 137.826 12.4915 138.139 13.0449C138.594 12.4915 139.086 12.0781 139.613 11.8047C140.141 11.5312 140.704 11.3945 141.303 11.3945C142.064 11.3945 142.709 11.5508 143.236 11.8633C143.764 12.1693 144.158 12.6217 144.418 13.2207C144.607 13.6634 144.701 14.3796 144.701 15.3691V22H141.957V16.0723C141.957 15.0436 141.863 14.3796 141.674 14.0801C141.42 13.6895 141.029 13.4941 140.502 13.4941C140.118 13.4941 139.757 13.6113 139.418 13.8457C139.079 14.0801 138.835 14.4251 138.686 14.8809C138.536 15.3301 138.461 16.043 138.461 17.0195V22H135.717V16.3164C135.717 15.3073 135.668 14.6562 135.57 14.3633C135.473 14.0703 135.32 13.8522 135.111 13.709C134.91 13.5658 134.633 13.4941 134.281 13.4941C133.858 13.4941 133.477 13.6081 133.139 13.8359C132.8 14.0638 132.556 14.3926 132.406 14.8223C132.263 15.252 132.191 15.9648 132.191 16.9609V22H129.447V11.6289ZM149.496 14.793L147.006 14.3438C147.286 13.3411 147.768 12.599 148.451 12.1172C149.135 11.6354 150.15 11.3945 151.498 11.3945C152.722 11.3945 153.633 11.541 154.232 11.834C154.831 12.1204 155.251 12.4883 155.492 12.9375C155.74 13.3802 155.863 14.1973 155.863 15.3887L155.834 18.5918C155.834 19.5033 155.876 20.1771 155.961 20.6133C156.052 21.043 156.218 21.5052 156.459 22H153.744C153.673 21.8177 153.585 21.5475 153.48 21.1895C153.435 21.0267 153.402 20.9193 153.383 20.8672C152.914 21.3229 152.413 21.6647 151.879 21.8926C151.345 22.1204 150.775 22.2344 150.17 22.2344C149.102 22.2344 148.259 21.9447 147.641 21.3652C147.029 20.7858 146.723 20.0534 146.723 19.168C146.723 18.582 146.863 18.0612 147.143 17.6055C147.423 17.1432 147.813 16.7917 148.314 16.5508C148.822 16.3034 149.551 16.0885 150.502 15.9062C151.785 15.6654 152.673 15.4408 153.168 15.2324V14.959C153.168 14.4316 153.038 14.0573 152.777 13.8359C152.517 13.6081 152.025 13.4941 151.303 13.4941C150.814 13.4941 150.434 13.5918 150.16 13.7871C149.887 13.9759 149.665 14.3112 149.496 14.793ZM153.168 17.0195C152.816 17.1367 152.26 17.2767 151.498 17.4395C150.736 17.6022 150.238 17.7617 150.004 17.918C149.646 18.1719 149.467 18.4941 149.467 18.8848C149.467 19.2689 149.61 19.6009 149.896 19.8809C150.183 20.1608 150.548 20.3008 150.99 20.3008C151.485 20.3008 151.957 20.138 152.406 19.8125C152.738 19.5651 152.956 19.2624 153.061 18.9043C153.132 18.6699 153.168 18.224 153.168 17.5664V17.0195ZM168.09 22H165.541V20.4766C165.118 21.069 164.617 21.5117 164.037 21.8047C163.464 22.0911 162.885 22.2344 162.299 22.2344C161.107 22.2344 160.085 21.7559 159.232 20.7988C158.386 19.8353 157.963 18.4941 157.963 16.7754C157.963 15.0176 158.376 13.6829 159.203 12.7715C160.03 11.8535 161.075 11.3945 162.338 11.3945C163.497 11.3945 164.499 11.8763 165.346 12.8398V7.68359H168.09V22ZM160.766 16.5898C160.766 17.6966 160.919 18.4974 161.225 18.9922C161.667 19.7083 162.286 20.0664 163.08 20.0664C163.712 20.0664 164.249 19.7995 164.691 19.2656C165.134 18.7253 165.355 17.9212 165.355 16.8535C165.355 15.6621 165.141 14.806 164.711 14.2852C164.281 13.7578 163.731 13.4941 163.061 13.4941C162.41 13.4941 161.863 13.7546 161.42 14.2754C160.984 14.7897 160.766 15.5612 160.766 16.5898ZM169.838 19.041L172.592 18.6211C172.709 19.1549 172.947 19.5618 173.305 19.8418C173.663 20.1152 174.164 20.252 174.809 20.252C175.518 20.252 176.052 20.1217 176.41 19.8613C176.651 19.679 176.771 19.4349 176.771 19.1289C176.771 18.9206 176.706 18.748 176.576 18.6113C176.439 18.4811 176.133 18.3607 175.658 18.25C173.445 17.7617 172.042 17.3158 171.449 16.9121C170.629 16.3522 170.219 15.5742 170.219 14.5781C170.219 13.6797 170.574 12.9245 171.283 12.3125C171.993 11.7005 173.093 11.3945 174.584 11.3945C176.003 11.3945 177.058 11.6257 177.748 12.0879C178.438 12.5501 178.913 13.2337 179.174 14.1387L176.586 14.6172C176.475 14.2135 176.264 13.9043 175.951 13.6895C175.645 13.4746 175.206 13.3672 174.633 13.3672C173.91 13.3672 173.393 13.4681 173.08 13.6699C172.872 13.8132 172.768 13.9987 172.768 14.2266C172.768 14.4219 172.859 14.5879 173.041 14.7246C173.288 14.9069 174.141 15.1641 175.6 15.4961C177.064 15.8281 178.087 16.235 178.666 16.7168C179.239 17.2051 179.525 17.8854 179.525 18.7578C179.525 19.7083 179.128 20.5254 178.334 21.209C177.54 21.8926 176.365 22.2344 174.809 22.2344C173.396 22.2344 172.276 21.9479 171.449 21.375C170.629 20.8021 170.092 20.0241 169.838 19.041Z" fill="#F3F3F3"/>
</svg>
