<svg width="16" height="16" viewBox="0 0 16 16" fill="none" xmlns="http://www.w3.org/2000/svg">
<g clip-path="url(#clip0_63_4712)">
<path d="M1.3335 3.33333L5.94218 5.94975C7.62596 6.90567 8.37436 6.90567 10.0582 5.94975L14.6668 3.33333" stroke="#848484" stroke-width="1.5" stroke-linejoin="round"/>
<path d="M7.00016 13C6.6893 12.9959 6.37804 12.99 6.06605 12.9821C3.96705 12.9294 2.91755 12.903 2.16347 12.1456C1.40938 11.3882 1.38759 10.3658 1.34401 8.32093C1.33 7.6634 1.32999 7.0098 1.344 6.35229C1.38759 4.30742 1.40938 3.28499 2.16346 2.52759C2.91755 1.7702 3.96705 1.74382 6.06604 1.69105C7.3597 1.65853 8.64063 1.65854 9.9343 1.69106C12.0333 1.74383 13.0828 1.77021 13.8368 2.52761C14.591 3.28499 14.6128 4.30743 14.6563 6.35229C14.6628 6.65501 14.6662 6.79767 14.6668 7" stroke="#848484" stroke-width="1.5" stroke-linecap="round" stroke-linejoin="round"/>
<path d="M12.6665 11.3333C12.6665 11.8856 12.2188 12.3333 11.6665 12.3333C11.1142 12.3333 10.6665 11.8856 10.6665 11.3333C10.6665 10.7811 11.1142 10.3333 11.6665 10.3333C12.2188 10.3333 12.6665 10.7811 12.6665 11.3333ZM12.6665 11.3333V11.6667C12.6665 12.2189 13.1142 12.6667 13.6665 12.6667C14.2188 12.6667 14.6665 12.2189 14.6665 11.6667V11.3333C14.6665 9.67647 13.3234 8.33334 11.6665 8.33334C10.0096 8.33334 8.6665 9.67647 8.6665 11.3333C8.6665 12.9902 10.0096 14.3333 11.6665 14.3333" stroke="#848484" stroke-width="1.5" stroke-linecap="round" stroke-linejoin="round"/>
</g>
<defs>
<clipPath id="clip0_63_4712">
<rect width="16" height="16" fill="white"/>
</clipPath>
</defs>
</svg>
