<svg width="24" height="24" viewBox="0 0 24 24" fill="none" xmlns="http://www.w3.org/2000/svg">
<path d="M20.9992 21.9955H3L3.0008 15L9 12V10H15V12L20.9992 15V21.9955Z" stroke="#0FFF50" stroke-width="1.5" stroke-linejoin="round"/>
<path d="M14 17C14 18.1046 13.1046 19 12 19C10.8954 19 10 18.1046 10 17C10 15.8954 10.8954 15 12 15C13.1046 15 14 15.8954 14 17Z" stroke="#0FFF50" stroke-width="1.5"/>
<path d="M16.833 8H16.083V8.51097L16.5585 8.69797L16.833 8ZM21.9188 10L21.6443 10.698C21.8625 10.7837 22.1081 10.7626 22.3084 10.6409C22.5087 10.5191 22.6405 10.3108 22.6648 10.0776L21.9188 10ZM7.16681 8L7.44126 8.69798L7.91681 8.51099V8H7.16681ZM2.081 9.99979L1.33503 10.0774C1.35929 10.3105 1.49113 10.5189 1.6914 10.6407C1.89166 10.7624 2.13733 10.7835 2.35545 10.6978L2.081 9.99979ZM20.7732 4.52212C19.7488 3.85465 18.6213 3.31114 17.0256 2.88708L16.6404 4.33677C18.0791 4.71909 19.0604 5.19637 19.954 5.77872L20.7732 4.52212ZM16.083 3.61193V8H17.583V3.61193H16.083ZM16.5585 8.69797L21.6443 10.698L22.1933 9.30203L17.1075 7.30203L16.5585 8.69797ZM22.6648 10.0776C22.8276 8.51312 22.9943 5.97054 20.7732 4.52212L19.954 5.77872C21.3361 6.67993 21.3446 8.27175 21.1729 9.92237L22.6648 10.0776ZM17.0256 2.88708C15.4215 2.46079 13.7085 2.24938 11.9996 2.25V3.75C13.5874 3.74943 15.1707 3.94619 16.6404 4.33677L17.0256 2.88708ZM4.04578 5.77851C4.93947 5.19616 5.92076 4.71888 7.35943 4.33656L6.97418 2.88687C5.3785 3.31092 4.25121 3.8543 3.22687 4.52177L4.04578 5.77851ZM6.41681 3.61171V8H7.91681V3.61171H6.41681ZM6.89236 7.30202L1.80655 9.30181L2.35545 10.6978L7.44126 8.69798L6.89236 7.30202ZM2.82697 9.92216C2.65519 8.27154 2.66376 6.67972 4.04578 5.77851L3.22687 4.52177C1.0057 5.97019 1.17221 8.51291 1.33503 10.0774L2.82697 9.92216ZM7.35943 4.33656C8.82912 3.94599 10.4117 3.74942 11.9996 3.75V2.25C10.2908 2.24938 8.57837 2.46056 6.97418 2.88687L7.35943 4.33656Z" fill="#0FFF50"/>
</svg>
