<svg width="20" height="20" viewBox="0 0 20 20" fill="none" xmlns="http://www.w3.org/2000/svg">
<path d="M14.005 5.095C13.827 5.095 13.653 5.14778 13.505 5.24668C13.357 5.34557 13.2416 5.48613 13.1735 5.65058C13.1054 5.81504 13.0876 5.996 13.1223 6.17058C13.157 6.34516 13.2427 6.50553 13.3686 6.6314C13.4945 6.75726 13.6548 6.84298 13.8294 6.87771C14.004 6.91243 14.185 6.89461 14.3494 6.82649C14.5139 6.75837 14.6544 6.64302 14.7533 6.49501C14.8522 6.34701 14.905 6.173 14.905 5.995C14.905 5.7563 14.8102 5.52739 14.6414 5.3586C14.4726 5.18982 14.2437 5.095 14.005 5.095ZM17.455 6.91C17.4404 6.28772 17.3239 5.67205 17.11 5.0875C16.9193 4.58735 16.6225 4.13446 16.24 3.76C15.8686 3.37557 15.4147 3.08063 14.9125 2.8975C14.3295 2.67712 13.7131 2.55791 13.09 2.545C12.295 2.5 12.04 2.5 10 2.5C7.96 2.5 7.705 2.5 6.91 2.545C6.28686 2.55791 5.67051 2.67712 5.0875 2.8975C4.58626 3.08249 4.1327 3.37717 3.76 3.76C3.37557 4.13138 3.08063 4.58533 2.8975 5.0875C2.67712 5.67051 2.55791 6.28686 2.545 6.91C2.5 7.705 2.5 7.96 2.5 10C2.5 12.04 2.5 12.295 2.545 13.09C2.55791 13.7131 2.67712 14.3295 2.8975 14.9125C3.08063 15.4147 3.37557 15.8686 3.76 16.24C4.1327 16.6228 4.58626 16.9175 5.0875 17.1025C5.67051 17.3229 6.28686 17.4421 6.91 17.455C7.705 17.5 7.96 17.5 10 17.5C12.04 17.5 12.295 17.5 13.09 17.455C13.7131 17.4421 14.3295 17.3229 14.9125 17.1025C15.4147 16.9194 15.8686 16.6244 16.24 16.24C16.6242 15.8669 16.9213 15.4136 17.11 14.9125C17.3239 14.3279 17.4404 13.7123 17.455 13.09C17.455 12.295 17.5 12.04 17.5 10C17.5 7.96 17.5 7.705 17.455 6.91ZM16.105 13C16.0995 13.4761 16.0133 13.9478 15.85 14.395C15.7302 14.7214 15.5379 15.0163 15.2875 15.2575C15.0442 15.5054 14.7499 15.6973 14.425 15.82C13.9778 15.9833 13.5061 16.0695 13.03 16.075C12.28 16.1125 12.0025 16.12 10.03 16.12C8.0575 16.12 7.78 16.12 7.03 16.075C6.53567 16.0843 6.04345 16.0081 5.575 15.85C5.26434 15.7211 4.98352 15.5296 4.75 15.2875C4.50107 15.0466 4.31113 14.7514 4.195 14.425C4.01189 13.9714 3.91033 13.489 3.895 13C3.895 12.25 3.85 11.9725 3.85 10C3.85 8.0275 3.85 7.75 3.895 7C3.89836 6.51329 3.98721 6.03096 4.1575 5.575C4.28954 5.25843 4.4922 4.97624 4.75 4.75C4.97786 4.49213 5.25947 4.28732 5.575 4.15C6.03216 3.98503 6.514 3.89881 7 3.895C7.75 3.895 8.0275 3.85 10 3.85C11.9725 3.85 12.25 3.85 13 3.895C13.4761 3.90046 13.9478 3.98668 14.395 4.15C14.7358 4.27649 15.0417 4.48214 15.2875 4.75C15.5333 4.98038 15.7253 5.26205 15.85 5.575C16.0167 6.0317 16.103 6.51383 16.105 7C16.1425 7.75 16.15 8.0275 16.15 10C16.15 11.9725 16.1425 12.25 16.105 13ZM10 6.1525C9.23936 6.15398 8.49622 6.38089 7.86449 6.80456C7.23276 7.22823 6.74078 7.82965 6.45073 8.53281C6.16067 9.23598 6.08554 10.0093 6.23485 10.7552C6.38415 11.501 6.75118 12.1859 7.28956 12.7232C7.82794 13.2606 8.51351 13.6263 9.25964 13.7741C10.0058 13.922 10.779 13.8453 11.4816 13.5539C12.1842 13.2625 12.7847 12.7693 13.2071 12.1368C13.6295 11.5042 13.855 10.7606 13.855 10C13.856 9.49383 13.7569 8.99246 13.5634 8.52472C13.37 8.05698 13.0859 7.63211 12.7277 7.27454C12.3694 6.91697 11.944 6.63376 11.4758 6.4412C11.0077 6.24864 10.5062 6.15052 10 6.1525ZM10 12.4975C9.50604 12.4975 9.02318 12.351 8.61246 12.0766C8.20175 11.8022 7.88164 11.4121 7.69261 10.9558C7.50358 10.4994 7.45412 9.99723 7.55049 9.51276C7.64686 9.02829 7.88472 8.58328 8.234 8.234C8.58328 7.88472 9.02829 7.64686 9.51276 7.55049C9.99723 7.45412 10.4994 7.50358 10.9558 7.69261C11.4121 7.88164 11.8022 8.20175 12.0766 8.61246C12.351 9.02318 12.4975 9.50604 12.4975 10C12.4975 10.328 12.4329 10.6527 12.3074 10.9558C12.1819 11.2588 11.9979 11.5341 11.766 11.766C11.5341 11.9979 11.2588 12.1819 10.9558 12.3074C10.6527 12.4329 10.328 12.4975 10 12.4975Z" fill="#F3F3F3" fill-opacity="0.952941"/>
</svg>
